<?xml version="1.0" standalone="no"?>
<!DOCTYPE svg PUBLIC "-//W3C//DTD SVG 20010904//EN"
 "http://www.w3.org/TR/2001/REC-SVG-20010904/DTD/svg10.dtd">
<svg version="1.0" xmlns="http://www.w3.org/2000/svg"
 width="1200.000000pt" height="713.000000pt" viewBox="0 0 1200.000000 713.000000"
 preserveAspectRatio="xMidYMid meet">

<g transform="translate(0.000000,713.000000) scale(0.100000,-0.100000)"
fill="#000000" stroke="none">
<path d="M0 6955 l0 -175 159 0 c131 0 161 3 171 15 28 34 87 -6 64 -42 -17
-27 -64 -29 -71 -4 -5 20 -12 21 -164 21 l-159 0 0 -60 0 -60 208 0 208 0 64
-65 64 -65 136 0 c124 0 136 2 148 20 28 45 97 7 72 -40 -13 -24 -52 -26 -70
-5 -10 12 -40 15 -154 15 l-142 0 -64 65 -64 65 -203 0 -203 0 0 -35 0 -35
122 0 122 0 53 -52 c36 -36 61 -52 79 -53 15 0 32 -8 38 -17 16 -26 -4 -53
-40 -53 -25 0 -29 4 -32 30 -2 20 -20 47 -55 83 l-51 52 -118 0 -118 0 0
-2315 0 -2315 93 0 92 0 105 -105 105 -105 240 0 c232 0 241 1 253 21 18 29
66 23 70 -9 7 -44 -41 -70 -68 -37 -10 13 -52 15 -259 15 l-246 0 -105 105
-105 105 -87 0 -88 0 0 -265 0 -265 120 0 119 0 3 108 3 107 641 3 c555 2 643
4 654 17 26 31 70 11 70 -32 0 -29 -33 -48 -60 -33 -11 6 -20 15 -20 20 0 6
-236 10 -640 10 l-640 0 0 -110 0 -110 -125 0 -125 0 0 -90 0 -90 160 0 160 0
0 -165 0 -165 -160 0 -160 0 0 -130 0 -130 164 0 c135 0 166 3 176 15 28 34
87 -6 64 -42 -16 -26 -50 -28 -71 -4 -16 20 -28 21 -175 21 l-158 0 0 -70 c0
-60 2 -70 18 -70 9 0 23 9 30 21 15 24 50 22 66 -3 23 -37 -36 -77 -64 -43 -7
8 -21 15 -31 15 -16 0 -19 -8 -19 -50 l0 -50 80 0 79 0 3 77 3 78 132 3 133 3
0 91 c0 70 -4 96 -16 109 -20 22 -10 56 18 65 30 9 62 -29 48 -57 -6 -10 -17
-19 -25 -19 -12 0 -15 -19 -15 -100 l0 -99 -133 -3 -132 -3 -3 -77 -3 -78 -84
0 -85 0 0 -165 0 -165 470 0 c259 0 470 2 470 4 0 2 -28 31 -62 65 l-62 61
-132 0 -133 0 -4 -32 c-4 -32 -4 -32 -5 5 l-2 37 143 0 143 0 69 -70 69 -70
283 0 283 0 0 60 0 60 175 0 175 0 0 -60 0 -60 75 0 74 0 3 113 3 112 235 3
235 2 115 -115 115 -115 432 0 c465 0 462 0 409 49 -17 16 -31 21 -46 16 -14
-4 -28 -1 -41 11 -24 22 -24 36 1 59 27 24 70 7 70 -28 0 -13 13 -36 30 -52
17 -16 30 -35 30 -42 0 -10 29 -13 130 -13 l130 0 0 130 c0 102 -3 136 -16
155 -20 30 -4 65 29 65 46 0 64 -49 27 -72 -18 -12 -20 -24 -20 -145 l0 -133
55 0 55 0 0 86 c0 71 -3 90 -20 111 -18 23 -19 29 -6 47 7 12 21 22 30 24 42
9 64 -58 26 -78 -18 -9 -20 -21 -20 -100 l0 -90 430 0 430 0 0 80 0 80 -270 0
c-253 0 -270 -1 -279 -19 -13 -24 -38 -33 -60 -22 -13 7 -20 5 -29 -10 -22
-35 -72 -18 -72 26 0 13 -46 66 -125 145 l-125 125 0 109 0 110 42 43 42 43
102 0 c78 0 104 3 114 15 16 19 54 19 70 0 10 -12 10 -21 2 -40 -14 -31 -56
-34 -74 -5 -11 18 -24 20 -103 20 l-91 0 -47 -48 -47 -48 0 -94 0 -95 124
-124 c91 -90 129 -122 141 -117 9 3 24 2 34 -3 13 -7 20 -5 29 10 15 23 45 25
62 4 11 -13 56 -15 291 -15 l279 0 0 -85 0 -85 90 0 c89 0 90 0 90 25 0 14 -4
25 -10 25 -5 0 -14 9 -20 20 -15 27 4 60 33 60 43 0 63 -44 32 -70 -8 -7 -15
-23 -15 -36 0 -24 2 -24 95 -24 l95 0 0 89 0 88 -50 47 c-48 45 -51 46 -112
46 -51 0 -67 -4 -81 -20 -20 -23 -41 -26 -59 -6 -10 11 -16 9 -31 -10 -23 -29
-38 -30 -62 -4 -16 18 -31 20 -151 20 -123 0 -134 -2 -144 -20 -13 -24 -43
-26 -63 -5 -13 13 -16 13 -27 0 -15 -18 -42 -19 -58 -3 -17 17 -15 57 3 64 23
9 23 655 0 674 -21 18 -19 57 4 70 29 15 39 13 57 -15 16 -24 16 -27 -5 -49
-13 -14 -21 -35 -21 -57 1 -28 2 -31 11 -16 12 20 49 23 67 5 17 -17 15 -57
-3 -64 -22 -9 -22 -196 0 -214 19 -16 19 -44 -1 -64 -20 -21 -30 -20 -54 4
l-20 20 0 -143 c0 -129 2 -143 19 -154 15 -10 22 -9 31 2 17 21 37 19 57 -5
16 -18 30 -20 150 -20 122 0 133 2 143 20 13 25 55 26 69 3 6 -10 11 -13 11
-6 0 16 29 43 46 43 8 0 22 -9 31 -20 14 -16 30 -20 88 -20 l71 0 52 -53 52
-53 0 -87 0 -87 335 0 335 0 0 199 c0 164 -3 201 -15 211 -38 32 1 93 45 70
24 -13 26 -52 5 -70 -12 -10 -15 -47 -15 -211 l0 -199 30 0 30 0 0 147 c0 122
-3 149 -17 165 -13 15 -14 23 -5 43 14 30 56 34 71 8 7 -13 10 24 11 128 0
119 -3 149 -15 159 -13 10 -19 10 -33 -4 -25 -22 -49 -20 -64 4 -12 18 -24 20
-138 20 -116 0 -126 -2 -138 -21 -9 -14 -21 -20 -41 -17 -16 1 -36 -4 -45 -11
-15 -12 -21 -11 -46 7 -24 18 -43 22 -107 22 l-79 0 -57 58 -57 58 0 220 0
220 28 27 28 27 171 0 c143 0 172 2 177 15 7 19 50 19 66 0 16 -19 9 -45 -16
-61 -18 -13 -24 -12 -47 6 -23 18 -40 20 -190 20 -146 0 -166 -2 -180 -18 -15
-16 -17 -48 -17 -238 l0 -220 48 -47 48 -47 81 0 c61 0 84 4 94 16 8 10 23 14
41 12 16 -3 31 -1 34 4 9 13 51 9 64 -7 10 -12 39 -15 141 -15 76 0 129 4 129
10 0 18 39 31 60 20 16 -9 24 -7 36 5 18 18 28 19 55 5 23 -13 25 -43 4 -64
-13 -12 -15 -64 -15 -335 l0 -321 263 0 262 0 102 103 c56 56 103 111 105 121
8 50 70 44 76 -7 4 -32 -28 -53 -56 -38 -16 8 -34 -6 -113 -85 l-94 -94 318 0
317 0 0 120 0 120 -128 0 -128 0 -38 39 c-25 26 -50 41 -69 43 -59 6 -62 69
-4 76 28 3 51 -25 42 -51 -4 -8 12 -30 38 -54 l43 -40 120 -1 c65 -1 125 -2
132 -2 9 0 12 -32 12 -125 l0 -125 702 0 702 0 -54 55 -54 55 352 0 352 0 0
-55 0 -55 125 0 125 0 0 105 0 105 134 0 134 0 54 -57 c30 -32 74 -79 98 -105
l43 -48 451 0 451 0 88 88 c48 48 84 91 81 95 -4 4 1 7 12 7 13 0 -10 -28 -76
-95 l-95 -95 523 0 522 0 0 285 0 285 -122 0 -121 0 -62 60 c-35 32 -61 61
-58 63 2 3 29 -22 60 -54 l56 -59 124 0 123 0 0 2315 0 2315 -93 0 -92 0 -105
105 -105 105 -245 0 c-237 0 -246 -1 -258 -21 -15 -24 -50 -22 -66 4 -23 36
36 76 64 42 11 -13 49 -15 259 -15 l246 0 105 -105 105 -105 92 0 93 0 0 270
0 270 -125 0 -125 0 0 -110 0 -110 -645 0 c-408 0 -645 -4 -645 -10 0 -18 -39
-31 -60 -20 -26 14 -26 56 0 70 21 11 60 -2 60 -20 0 -6 236 -10 640 -10 l640
0 0 110 0 110 130 0 130 0 0 95 0 95 -165 0 -165 0 0 160 0 160 163 -2 162 -2
-157 -3 -158 -4 0 -149 0 -150 161 0 161 0 -6 281 c-4 155 -9 285 -12 290 -3
5 0 9 5 9 7 0 11 28 11 71 l0 71 -29 -4 c-23 -3 -31 0 -35 15 -3 13 -12 18
-28 15 -18 -2 -23 -9 -23 -30 1 -14 -3 -24 -7 -22 -12 8 -10 38 4 52 16 16 43
15 58 -3 7 -8 23 -15 36 -15 22 0 24 4 24 50 l0 50 -85 0 -85 0 0 -75 c0 -41
-3 -75 -7 -75 -5 0 -7 36 -5 80 l4 80 89 0 89 0 0 160 0 160 -472 0 -472 0 59
-60 60 -61 137 3 c75 2 134 0 131 -4 -2 -5 -64 -8 -136 -8 l-133 0 -64 65 -64
65 -293 0 -292 0 -3 -52 -3 -53 -172 -3 -173 -2 0 55 0 55 -79 0 c-54 0 -81
-4 -84 -12 -4 -10 -6 -10 -6 0 -1 9 -74 12 -328 12 l-328 0 105 -105 105 -105
225 2 225 3 -3 25 c-2 21 -1 22 8 8 5 -9 7 -23 4 -32 -5 -14 -36 -16 -238 -16
l-231 0 -110 110 -110 110 -437 0 c-241 0 -438 -4 -438 -8 0 -5 11 -19 24 -31
16 -16 30 -20 48 -16 16 4 29 0 41 -13 34 -37 -17 -90 -54 -56 -10 9 -19 24
-19 33 0 9 -16 33 -35 54 l-35 37 -125 0 -125 0 0 -125 c0 -97 4 -131 16 -150
20 -30 4 -65 -29 -65 -49 0 -63 49 -22 76 24 16 25 19 25 140 l0 124 -60 0
-60 0 0 -81 c0 -66 4 -86 20 -106 18 -23 19 -29 6 -47 -17 -27 -39 -31 -60
-11 -22 22 -20 52 4 65 18 9 20 21 20 95 l0 85 -430 0 -430 0 0 -70 0 -70 275
0 c181 0 275 4 275 10 0 18 48 34 63 22 10 -8 16 -6 25 9 22 35 72 18 72 -26
0 -13 46 -66 125 -145 l125 -125 0 -105 0 -106 -48 -47 -48 -47 -94 0 c-72 0
-98 -4 -111 -16 -21 -19 -64 -12 -73 12 -17 44 51 75 76 34 11 -18 24 -20 103
-20 l91 0 47 48 47 48 0 94 0 95 -124 124 c-107 107 -129 124 -158 125 -22 1
-39 -5 -50 -19 -16 -19 -18 -19 -48 -2 -28 15 -63 17 -306 17 l-274 0 0 80 0
80 -90 0 c-83 0 -90 -1 -90 -20 0 -11 4 -20 10 -20 5 0 14 -9 20 -20 15 -27
-4 -60 -33 -60 -43 0 -63 44 -32 70 8 7 15 21 15 31 0 17 -9 19 -95 19 l-95 0
0 -78 0 -78 48 -46 c46 -46 49 -47 116 -49 55 -2 70 1 78 14 11 21 57 22 64 2
5 -12 10 -10 26 10 24 30 42 32 65 5 16 -18 30 -20 150 -20 122 0 133 2 143
20 12 22 49 27 67 9 8 -8 17 -7 32 3 16 9 26 10 39 2 23 -15 28 -62 8 -70 -14
-5 -16 -46 -16 -334 0 -279 2 -329 15 -340 8 -7 15 -23 15 -37 0 -28 -35 -46
-62 -31 -22 11 -23 51 -3 68 8 7 15 28 15 47 0 31 -1 33 -16 19 -18 -19 -45
-21 -62 -4 -18 18 -15 46 8 65 17 15 20 30 20 106 0 79 -2 91 -22 106 -16 13
-19 24 -14 44 9 37 45 46 68 17 18 -22 18 -19 18 121 0 132 -2 145 -20 156
-12 8 -21 9 -25 3 -9 -15 -51 -12 -65 5 -10 12 -39 15 -144 15 -119 0 -133 -2
-149 -20 -20 -23 -40 -26 -56 -6 -10 12 -16 10 -36 -10 -20 -20 -29 -23 -44
-14 -11 5 -23 15 -26 20 -3 6 -36 10 -73 10 l-66 0 -58 57 -58 57 0 78 0 78
-290 0 -290 0 0 -95 0 -95 184 0 c151 0 186 3 196 15 26 31 70 11 70 -32 0
-29 -33 -48 -60 -33 -11 6 -20 17 -20 25 0 13 -30 15 -195 15 l-195 0 0 100 0
100 -35 0 -35 0 0 -191 c0 -175 2 -193 20 -216 21 -27 15 -55 -15 -67 -42 -16
-75 45 -40 74 12 10 15 46 15 206 l0 194 -30 0 -30 0 0 -141 c0 -111 3 -144
15 -155 21 -21 19 -51 -4 -64 -27 -14 -37 -13 -55 6 -15 14 -16 2 -16 -128 0
-130 2 -144 19 -155 15 -10 20 -9 25 2 8 22 54 18 68 -5 12 -18 24 -20 135
-20 116 0 123 1 146 24 17 17 32 23 46 19 12 -3 28 0 36 7 17 14 51 5 59 -15
4 -12 25 -15 94 -15 l88 0 52 -53 52 -53 0 -225 0 -225 -28 -27 -28 -27 -171
0 c-143 0 -172 -2 -177 -15 -7 -19 -50 -19 -66 0 -17 20 -5 62 21 70 14 5 28
0 43 -14 21 -20 34 -21 188 -21 147 0 167 2 181 18 15 16 17 48 17 244 l0 225
-50 47 -49 46 -80 0 c-71 0 -82 -2 -92 -21 -8 -17 -17 -20 -40 -15 -15 3 -31
1 -34 -4 -10 -16 -55 -12 -61 5 -5 12 -30 15 -140 15 -79 0 -134 -4 -134 -10
0 -19 -39 -31 -61 -20 -16 9 -24 8 -38 -4 -23 -21 -34 -20 -54 2 -21 23 -22
46 -2 62 13 11 15 60 15 326 l0 314 -268 0 -267 0 -97 -97 c-53 -54 -98 -107
-100 -117 -9 -51 -73 -43 -73 9 0 35 27 55 54 38 16 -10 29 0 107 78 l89 89
-313 0 -312 0 0 -115 0 -115 128 0 128 0 39 -40 c26 -27 45 -38 57 -34 42 13
77 -43 46 -74 -26 -26 -86 3 -73 36 4 10 -10 31 -37 59 l-42 43 -133 0 -133 0
0 120 0 120 -55 0 -55 0 0 -305 0 -305 75 0 74 0 3 68 3 67 150 3 c83 1 159 7
171 13 33 17 68 8 72 -19 5 -30 -14 -52 -45 -52 -16 0 -27 7 -30 20 -5 19 -14
20 -159 20 l-154 0 0 -70 0 -70 -85 0 c-51 0 -85 4 -85 10 0 6 -10 8 -24 4
-18 -4 -30 0 -43 15 -11 13 -29 21 -50 21 l-32 0 -3 -57 -3 -58 -75 0 -75 0
-3 130 c-2 101 -6 133 -18 147 -11 11 -14 26 -10 43 5 20 13 25 36 25 36 0 56
-30 40 -60 -6 -11 -15 -20 -20 -20 -6 0 -10 -51 -10 -125 l0 -125 60 0 59 0 3
58 3 57 40 3 c22 2 48 10 57 19 10 9 26 13 40 10 l23 -6 4 264 3 265 -354 0
-353 0 -84 -84 c-46 -46 -80 -89 -77 -95 13 -21 -14 -52 -41 -49 -58 7 -55 70
4 76 22 2 51 24 108 83 l80 79 -280 0 -279 0 49 -50 49 -50 -352 0 -352 0 0
50 0 50 -125 0 -125 0 0 -100 0 -100 -137 0 -138 0 -89 100 -89 100 -449 0
-448 0 0 -95 0 -95 115 0 115 0 0 -78 c0 -67 3 -79 21 -90 24 -15 22 -50 -4
-66 -12 -8 -22 -8 -35 0 -23 15 -28 62 -8 70 12 5 16 22 16 75 l0 69 -115 0
-115 0 0 105 c0 58 -3 105 -8 105 -10 0 -162 -153 -162 -163 0 -4 32 -7 70 -7
l70 0 0 -29 c0 -24 3 -28 23 -24 14 3 29 -3 41 -16 11 -12 31 -21 48 -21 28 0
28 0 28 -64 0 -62 1 -64 45 -105 l45 -41 93 0 c80 0 95 3 110 20 21 25 32 25
58 -1 18 -18 19 -23 6 -42 -19 -30 -53 -33 -69 -8 -11 19 -23 21 -108 21 l-96
0 -47 48 c-44 44 -47 51 -47 99 0 45 -2 51 -23 55 -14 3 -33 -3 -46 -13 -13
-11 -29 -15 -39 -11 -14 5 -12 7 8 12 30 7 40 44 14 54 -36 14 -56 -46 -26
-76 34 -34 -6 -90 -48 -68 -27 14 -26 56 1 70 18 10 20 18 15 68 -3 31 -5 58
-5 60 -1 1 -36 2 -78 2 l-78 0 90 90 90 90 -108 0 -107 0 0 -70 0 -71 -107 3
-108 3 3 68 4 67 -217 0 -216 0 2 -100 c1 -71 5 -103 15 -111 33 -27 5 -87
-35 -74 -31 10 -38 45 -12 66 19 15 21 27 21 118 l0 101 -80 0 -80 0 0 -175z
m3917 95 c16 -19 30 -20 240 -20 l223 0 0 -140 c0 -112 3 -140 14 -140 26 0
40 -28 27 -56 -8 -19 -17 -25 -38 -22 -36 4 -52 31 -35 59 12 19 6 27 -70 105
-67 69 -87 84 -105 79 -15 -3 -29 1 -41 13 -18 18 -19 18 -40 -5 -19 -21 -22
-37 -22 -106 0 -68 3 -84 21 -103 26 -28 18 -61 -17 -70 -45 -11 -72 37 -39
70 22 21 21 188 0 206 -21 17 -15 49 12 67 19 13 24 12 42 -6 20 -20 21 -20
31 -1 20 38 80 19 80 -25 0 -12 31 -52 80 -100 l80 -80 0 118 0 117 -220 0
c-122 0 -220 -4 -220 -9 0 -13 -30 -22 -51 -16 -27 9 -34 43 -13 66 22 24 40
24 61 -1z m1775 -25 c9 -20 8 -28 -6 -44 -11 -12 -14 -21 -7 -26 15 -8 14 -48
-1 -63 -16 -16 -43 -15 -58 3 -9 11 -35 15 -103 15 l-91 0 -48 -47 -48 -47 0
-95 0 -94 126 -127 c101 -103 129 -126 148 -123 24 5 56 -19 56 -41 0 -7 -9
-21 -20 -31 -29 -26 -70 -7 -70 32 0 23 -25 53 -125 153 l-125 125 0 105 0
104 47 48 47 48 92 0 c87 0 92 1 109 26 30 47 11 54 -149 54 l-142 0 -71 -72
c-39 -40 -74 -83 -78 -96 -15 -50 -85 -48 -85 2 0 31 24 50 53 42 19 -4 36 8
97 69 l74 75 147 0 c118 0 149 3 159 15 20 24 59 19 72 -10z m4860 -7 c-7 -7
-12 -20 -12 -29 0 -24 30 -33 49 -14 13 13 14 18 2 38 -13 21 -13 22 6 5 13
-13 36 -18 74 -18 l54 0 175 -175 c164 -164 175 -173 192 -158 37 33 91 -20
56 -55 -7 -7 -17 -12 -24 -12 -7 0 -99 88 -205 195 l-192 195 -59 0 c-41 0
-60 -4 -64 -14 -14 -37 -74 -23 -74 18 0 25 7 36 24 36 6 0 5 -5 -2 -12z
m1291 -5 l-142 -4 -3 -142 -3 -142 -145 -3 -145 -3 -55 -54 -55 -55 -155 155
c-105 106 -160 154 -172 151 -14 -3 -15 -1 -5 16 10 16 8 22 -12 39 -13 10
-20 19 -15 19 12 0 44 -32 44 -44 0 -6 71 -82 158 -169 l157 -157 55 55 54 55
143 0 143 0 0 145 0 145 148 -2 147 -2 -142 -3z m-2929 -19 c21 -20 20 -30 -4
-54 -17 -17 -24 -18 -41 -10 -11 6 -23 18 -26 26 -4 11 -42 14 -219 14 l-214
0 0 -55 0 -55 -68 0 c-56 0 -69 -3 -80 -20 -25 -41 -93 -10 -76 34 9 24 52 31
73 12 12 -11 36 -16 79 -16 l62 0 0 55 0 55 221 0 c183 0 223 3 235 15 20 19
39 19 58 -1z m-5784 -9 c13 -16 6 -65 -10 -65 -6 0 -10 -45 -10 -110 l0 -110
40 0 40 0 0 50 0 50 115 0 c67 0 115 4 115 10 0 5 9 14 20 20 27 15 60 -4 60
-33 0 -43 -44 -63 -70 -32 -10 12 -36 15 -119 15 l-106 0 3 -45 c2 -25 0 -45
-4 -46 -5 0 -18 -2 -29 -5 -11 -2 -35 -2 -52 1 l-33 6 0 109 c0 97 -2 112 -20
130 -24 24 -25 34 -4 54 20 20 48 20 64 1z m-1279 -5 c22 -13 25 -52 4 -70
-10 -9 -15 -39 -17 -113 l-3 -102 -127 -3 -128 -3 0 -74 0 -75 -165 0 c-137 0
-170 -3 -191 -17 -24 -15 -26 -15 -46 4 -34 35 -4 83 43 68 10 -3 21 -15 24
-26 6 -18 16 -19 161 -19 l154 0 0 80 0 80 135 0 135 0 0 93 c0 81 -2 94 -20
105 -25 15 -26 57 -2 71 21 13 20 13 43 1z m985 -25 c8 -20 -14 -55 -36 -55
-10 0 -25 7 -34 15 -8 8 -31 15 -50 15 l-36 0 0 -95 0 -95 -57 0 c-56 0 -57 1
-124 65 -64 62 -70 65 -115 65 -47 0 -48 -1 -26 -16 12 -8 22 -20 22 -27 0 -6
37 -49 82 -94 l83 -83 97 0 98 0 0 110 0 110 93 0 c81 0 96 3 112 20 22 24 38
25 59 4 24 -23 20 -53 -9 -66 -20 -9 -28 -8 -43 5 -15 13 -39 17 -111 17 l-92
0 2 -107 2 -108 -104 -3 -103 -3 -87 87 c-52 52 -89 82 -93 75 -12 -18 -54
-13 -66 9 -12 22 0 54 22 63 7 3 -27 6 -77 6 -64 0 -96 -4 -109 -14 -30 -22
-55 -18 -68 11 -11 23 -10 29 11 45 25 20 57 12 68 -17 4 -11 33 -14 147 -14
l141 0 70 -65 c63 -59 74 -65 113 -65 l42 0 0 95 0 95 40 0 c29 0 46 7 64 25
22 22 29 24 46 15 12 -6 23 -17 26 -25z m8076 -1 c-3 -16 1 -30 9 -36 12 -8
11 -9 -1 -5 -17 4 -25 30 -16 53 9 23 14 16 8 -12z m-1612 -34 c11 -21 -2 -60
-20 -60 -6 0 -10 -65 -10 -163 0 -151 2 -165 20 -182 26 -24 25 -39 -4 -63
-18 -13 -22 -22 -14 -30 7 -7 17 -5 32 9 18 17 21 32 23 110 1 79 -1 90 -18
100 -25 13 -22 57 4 73 36 23 76 -36 42 -64 -22 -18 -22 -202 0 -220 18 -15
19 -42 3 -58 -17 -17 -55 -15 -66 4 -8 14 -10 14 -21 0 -24 -29 -71 -13 -71
24 0 8 -38 53 -85 100 l-85 85 0 -123 0 -122 218 0 c206 0 218 1 230 20 23 37
72 19 72 -27 0 -33 -35 -49 -65 -29 -19 13 -65 16 -247 18 l-223 3 -3 134 c-2
122 -4 135 -24 150 -40 33 -3 95 43 71 20 -11 26 -49 9 -66 -6 -6 20 -40 78
-97 77 -76 91 -87 111 -79 20 7 21 9 7 21 -22 18 -20 38 4 53 19 12 20 24 20
180 0 101 -4 168 -10 168 -5 0 -14 9 -20 20 -15 28 4 60 35 60 14 0 29 -8 35
-20z m-1572 -2 c17 -17 15 -53 -3 -68 -12 -10 -15 -28 -13 -69 l3 -56 103 -3
102 -3 0 -80 c0 -65 4 -86 20 -106 32 -41 -4 -88 -49 -63 -25 13 -28 58 -6 66
12 5 15 25 15 90 l0 84 -100 0 -100 0 0 70 c0 55 -3 70 -15 70 -20 0 -30 46
-15 65 15 18 42 19 58 3z m1430 -132 c2 -103 6 -132 18 -141 36 -26 -6 -92
-43 -69 -24 15 -29 62 -9 70 13 5 16 27 16 130 l0 124 -60 0 -60 0 0 -55 0
-55 -37 0 c-24 0 -45 -8 -60 -22 -21 -19 -27 -21 -44 -9 -12 7 -22 11 -22 9
-1 -2 -1 -123 1 -270 l3 -268 347 0 347 0 82 83 c60 60 83 90 85 112 3 26 7
30 32 30 36 0 56 -27 40 -52 -6 -10 -23 -18 -38 -18 -19 -1 -48 -22 -109 -83
l-82 -82 -363 0 -362 0 0 305 0 305 -75 0 -75 0 0 -65 0 -65 -159 0 c-152 0
-160 -1 -166 -21 -10 -30 -69 -23 -73 9 -7 44 41 70 68 37 10 -12 42 -15 166
-15 l153 0 3 68 3 67 83 3 c68 2 82 0 82 -13 0 -18 4 -19 31 -2 17 10 23 9 39
-10 12 -15 29 -23 49 -23 31 0 31 0 31 53 0 30 3 57 7 61 4 4 39 5 78 4 l70
-3 3 -129z m-4998 104 c11 -21 -2 -60 -20 -60 -6 0 -10 -64 -10 -159 0 -134 3
-164 18 -190 16 -30 16 -31 -4 -52 -27 -26 -61 -18 -70 17 -7 26 10 54 32 54
11 0 14 31 14 163 0 151 -1 163 -20 175 -22 14 -26 42 -8 60 19 19 56 14 68
-8z m5946 5 c9 -22 226 -22 244 1 20 23 64 14 68 -14 4 -26 -13 -52 -34 -52
-8 0 -22 9 -31 20 -15 18 -30 20 -126 20 -100 0 -110 -2 -127 -22 -15 -20 -21
-21 -44 -10 -44 20 -28 72 21 72 13 0 26 -7 29 -15z m-4598 -17 c17 -17 15
-57 -3 -64 -12 -5 -15 -24 -15 -85 l0 -79 100 0 100 0 0 -69 c0 -60 2 -69 20
-74 15 -4 20 -14 20 -36 0 -37 -29 -57 -60 -41 -24 13 -26 52 -5 70 10 8 15
31 15 71 l0 58 -102 3 -103 3 -1 84 c-1 66 -5 86 -18 93 -32 18 -13 78 24 78
9 0 21 -5 28 -12z m4450 0 c7 -7 12 -24 12 -38 0 -17 12 -37 33 -56 l32 -29
206 0 c114 0 205 -3 202 -8 -2 -4 -97 -7 -210 -6 l-205 1 -39 35 c-21 19 -42
32 -47 29 -12 -7 -52 22 -52 39 0 17 27 45 44 45 6 0 17 -5 24 -12z m-534 -43
c-1 -33 10 -56 77 -157 l79 -118 105 0 105 0 0 79 c0 59 -4 82 -15 91 -34 28
6 87 43 64 25 -16 27 -50 3 -66 -17 -12 -21 -27 -23 -99 l-3 -84 -107 -3 -107
-3 -86 129 c-63 93 -95 131 -116 139 -49 19 -32 77 21 71 22 -3 25 -7 24 -43z
m-2023 5 c21 -12 25 -50 7 -68 -9 -9 -9 -15 0 -24 16 -16 15 -43 -3 -58 -13
-10 -15 -52 -15 -255 0 -203 2 -245 15 -255 25 -20 19 -59 -11 -72 -24 -11
-29 -10 -48 15 -16 20 -25 24 -33 16 -17 -17 -52 0 -59 28 -5 20 -2 31 14 44
20 15 22 27 22 108 l0 91 -188 0 c-176 0 -188 -1 -200 -20 -22 -36 -72 -19
-72 25 0 41 39 58 69 31 13 -12 55 -15 191 -17 96 -1 183 -4 193 -7 15 -4 17
-17 17 -103 0 -78 3 -101 15 -105 8 -3 17 -15 20 -25 5 -16 10 -18 21 -8 11 9
14 57 14 255 0 150 -4 244 -10 244 -5 0 -14 9 -20 21 -9 16 -8 26 5 45 l15 24
-195 0 c-182 0 -198 -1 -223 -20 -33 -25 -60 -18 -68 16 -12 48 40 73 73 34
16 -19 30 -20 206 -20 157 0 188 2 184 14 -6 15 19 56 34 56 6 0 19 -5 30 -10z
m-1264 -66 c4 -11 37 -14 177 -14 l172 0 44 -45 c32 -33 47 -42 56 -34 29 24
71 -13 59 -52 -13 -40 -71 -33 -81 10 -4 14 -25 45 -47 69 l-41 42 -167 0
c-136 0 -169 -3 -179 -15 -15 -18 -51 -20 -68 -3 -18 18 -14 45 10 62 23 16
54 7 65 -20z m4403 -3 c23 -44 -27 -78 -62 -43 -16 16 -18 23 -9 41 15 27 57
28 71 2z m-8239 -1 c11 -7 19 -21 19 -37 0 -20 38 -62 178 -199 l177 -173 55
-1 c45 0 58 4 68 21 16 25 50 22 69 -8 13 -19 12 -24 -6 -42 -26 -26 -36 -26
-61 -1 -16 16 -33 20 -80 20 l-59 0 -174 174 c-142 143 -178 174 -196 169 -41
-10 -69 45 -39 75 15 15 24 15 49 2z m4517 -22 c7 -7 12 -24 12 -39 0 -19 13
-39 45 -68 l45 -41 159 0 c157 0 161 0 185 25 27 27 50 25 67 -6 23 -43 -40
-82 -71 -44 -10 12 -44 15 -184 15 l-172 0 -44 45 c-31 32 -52 45 -72 45 -34
0 -54 31 -38 60 12 22 49 27 68 8z m3855 -35 c-22 -4 -23 -8 -23 -114 0 -60
-3 -109 -7 -109 -8 0 -6 195 2 218 2 6 15 11 27 11 l23 -2 -22 -4z m252 -74
c77 -74 84 -79 104 -67 38 23 79 -23 51 -57 -19 -23 -48 -17 -64 13 -8 15 -53
65 -100 110 -47 45 -83 82 -80 82 4 0 44 -36 89 -81z m-625 -88 c0 -86 3 -111
15 -121 34 -28 -6 -87 -42 -64 -26 16 -27 47 -3 69 18 16 20 30 20 117 l0 98
-44 0 -45 0 -3 -47 -3 -48 -109 -3 c-96 -2 -110 -5 -125 -24 -21 -25 -57 -18
-66 13 -13 41 47 68 75 34 10 -13 33 -15 114 -13 l101 3 3 48 3 47 55 0 54 0
0 -109z m-7383 79 c5 -19 14 -20 226 -20 l221 0 37 -36 c31 -30 40 -34 56 -25
40 21 82 -36 51 -67 -26 -26 -78 -7 -78 27 0 8 -14 30 -32 48 l-32 33 -223 0
c-161 0 -229 -3 -243 -12 -34 -22 -72 17 -56 58 9 23 67 18 73 -6z m3119 -25
l16 -25 180 0 c165 0 182 2 205 20 23 18 29 19 47 6 12 -7 22 -21 24 -30 9
-42 -58 -64 -78 -26 -10 19 -21 20 -199 20 -155 0 -191 -3 -201 -15 -26 -31
-70 -11 -70 32 0 21 23 42 47 43 7 0 20 -11 29 -25z m2322 -7 c7 -7 12 -19 12
-27 0 -8 21 -37 47 -63 l47 -48 133 0 133 0 0 -144 c0 -119 3 -145 15 -150 19
-7 19 -50 0 -66 -19 -16 -45 -9 -62 17 -13 19 -12 24 6 42 19 19 21 33 21 156
l0 135 -127 0 -127 0 -43 42 c-36 35 -50 43 -83 43 -30 0 -40 -4 -40 -15 0
-23 -20 -40 -47 -40 -15 0 -47 -25 -96 -75 l-73 -75 -145 0 c-132 0 -146 -2
-162 -20 -23 -27 -43 -25 -63 5 -16 24 -16 27 1 45 22 24 48 26 65 5 10 -12
41 -15 159 -15 l147 0 68 69 c49 49 67 74 62 86 -15 40 41 74 72 43 9 -9 12
-6 12 13 0 29 17 49 40 49 9 0 21 -5 28 -12z m2533 -53 l67 -65 145 0 c116 0
147 3 157 15 17 21 47 19 60 -4 16 -31 12 -35 -8 -10 -24 28 -55 20 -50 -13 2
-18 9 -23 30 -23 14 1 24 -3 22 -7 -10 -15 -44 -8 -56 12 -12 19 -24 20 -158
20 l-146 0 -64 65 c-61 62 -67 65 -112 65 l-48 0 0 -95 0 -95 -55 0 c-30 0
-55 -4 -55 -10 0 -5 -10 -14 -21 -21 -18 -9 -25 -7 -42 9 -22 23 -18 45 12 62
17 8 24 7 41 -10 14 -14 33 -20 65 -20 l45 0 0 95 0 95 52 0 c50 0 54 -2 119
-65z m717 34 c-24 -14 -22 -35 4 -53 12 -9 18 -16 14 -16 -14 0 -46 31 -46 45
0 14 21 35 35 35 5 0 2 -5 -7 -11z m51 -8 c8 -13 6 -23 -5 -37 -14 -18 -15
-18 -5 3 9 17 7 25 -5 37 -8 9 -11 16 -5 16 6 0 15 -8 20 -19z m-6335 -17 c21
-21 20 -37 -4 -59 -18 -16 -20 -31 -20 -147 0 -115 2 -130 20 -148 25 -25 25
-42 0 -65 -17 -15 -24 -16 -45 -7 -29 13 -34 52 -10 72 12 10 15 40 15 150 0
113 -3 139 -15 144 -18 7 -20 47 -3 64 17 17 44 15 62 -4z m5130 -36 c14 -20
14 -24 -1 -40 -27 -30 -73 -17 -73 22 0 41 50 53 74 18z m-7416 -13 c19 -24
25 -25 123 -25 100 0 104 1 125 27 20 25 24 26 48 15 21 -9 27 -18 24 -39 -4
-35 -31 -52 -58 -35 -26 16 -232 16 -276 0 -26 -9 -36 -9 -48 1 -20 17 -20 45
0 65 22 22 40 20 62 -9z m2174 0 c9 -21 8 -28 -7 -45 -23 -25 -41 -25 -62 0
-14 16 -30 20 -80 20 l-62 0 -3 -52 -3 -53 -41 -3 c-36 -3 -41 -6 -37 -22 3
-11 27 -40 54 -65 l49 -46 0 -89 0 -90 -39 0 c-30 0 -40 -4 -44 -20 -4 -15
-14 -20 -36 -20 -36 0 -57 29 -42 59 15 27 41 34 67 16 13 -8 35 -15 49 -15
25 0 25 1 25 78 l0 78 -44 43 c-40 39 -45 42 -65 29 -28 -17 -55 -1 -59 36
l-3 26 -136 0 c-120 0 -138 -2 -160 -20 -23 -18 -29 -19 -47 -6 -25 16 -32 42
-16 61 16 19 59 19 66 0 5 -13 40 -15 225 -15 l218 0 3 53 3 52 70 0 c55 0 73
4 83 18 20 26 60 22 74 -8z m5404 -12 c-8 -8 -127 -5 -135 3 -2 2 29 4 69 4
40 0 70 -3 66 -7z m-5162 -29 c9 -8 16 -22 16 -29 0 -15 -27 -45 -41 -45 -5 0
-9 -40 -9 -90 0 -70 3 -90 14 -90 39 0 46 -72 7 -85 -45 -14 -79 39 -47 74 22
24 23 185 1 207 -19 20 -19 39 1 58 8 9 22 16 29 16 7 0 21 -7 29 -16z m2874
-16 c31 -31 -11 -88 -51 -66 -17 9 -33 -3 -123 -93 -70 -70 -104 -111 -104
-126 0 -29 -33 -47 -60 -33 -42 22 -14 89 32 76 19 -4 41 12 126 97 56 56 102
107 102 114 0 33 54 55 78 31z m3262 -33 c0 -7 -7 -19 -17 -26 -15 -13 -15
-12 -3 8 12 19 12 25 -5 45 l-20 23 23 -19 c12 -11 22 -25 22 -31z m-57 28
c-19 -7 -16 -44 5 -60 15 -13 15 -13 -5 -3 -32 15 -31 72 1 69 6 0 5 -3 -1 -6z
m-226 -85 c33 -35 82 -88 111 -118 38 -42 58 -56 78 -55 33 0 54 -28 38 -52
-24 -38 -74 -22 -74 23 0 17 -33 60 -106 139 l-106 115 -129 0 -129 0 0 -134
c0 -108 3 -136 15 -146 34 -28 -6 -87 -42 -64 -26 16 -28 51 -4 66 20 12 21
22 21 150 l0 138 134 0 134 0 59 -62z m-1476 12 c23 -13 25 -43 4 -64 -11 -11
-15 -39 -15 -115 l0 -101 75 0 75 0 0 78 c0 66 -3 79 -20 90 -11 7 -20 19 -20
26 0 18 27 46 45 46 15 0 45 -27 45 -41 0 -5 -9 -18 -20 -29 -17 -17 -20 -33
-20 -105 l0 -86 -86 3 -87 3 2 107 c2 98 0 108 -18 118 -23 12 -28 49 -9 68
15 15 24 15 49 2z m1247 -12 c16 -16 15 -43 -3 -58 -12 -10 -15 -42 -15 -171
l0 -159 -92 0 c-79 0 -95 -3 -114 -21 -15 -14 -29 -19 -43 -14 -25 8 -37 41
-21 60 16 19 59 19 66 0 5 -12 26 -15 100 -15 l94 0 0 153 c0 141 -1 153 -20
165 -34 21 -20 72 20 72 9 0 21 -5 28 -12z m-4562 -33 c16 -24 16 -27 -5 -49
-17 -18 -21 -35 -21 -84 l0 -62 -199 0 c-168 0 -200 -2 -205 -15 -7 -18 -47
-20 -64 -3 -21 21 -14 57 13 70 21 10 29 8 48 -10 22 -21 32 -22 205 -22 l182
0 0 54 c0 35 -5 58 -15 66 -20 17 -19 57 3 69 27 16 40 13 58 -14z m4214 -70
c0 -55 3 -66 21 -76 16 -8 20 -18 17 -40 -4 -25 -1 -29 18 -29 12 0 27 7 34
16 20 23 64 14 68 -14 7 -47 -46 -71 -70 -32 -12 19 -24 20 -190 20 l-178 0 0
-85 0 -85 -203 0 -202 0 -85 -85 -85 -85 -155 0 -155 0 107 108 c91 92 105
109 95 125 -16 23 3 52 33 52 47 0 53 -57 8 -74 -13 -5 -66 -52 -118 -105
l-95 -96 137 0 137 0 87 83 87 82 196 5 196 5 3 83 3 82 130 0 129 0 -6 24
c-3 14 0 29 10 39 11 11 16 34 16 76 l0 61 -332 0 -332 0 43 -44 c35 -36 48
-43 78 -42 42 1 65 -23 47 -51 -16 -26 -56 -23 -70 6 -7 13 -38 50 -70 82
l-58 59 352 0 352 0 0 -65z m-3872 13 c19 -19 14 -56 -8 -68 -17 -9 -20 -21
-20 -80 l0 -70 238 -2 237 -3 3 -82 3 -83 114 0 c104 0 115 2 125 20 23 43 88
14 76 -34 -8 -31 -33 -40 -62 -22 -16 11 -57 16 -146 18 l-123 3 -3 83 -3 82
-234 0 -235 0 0 79 c0 44 -4 83 -10 86 -23 14 -29 42 -14 63 17 24 44 28 62
10z m757 -5 c11 -10 15 -26 12 -43 -5 -23 11 -43 136 -168 l142 -142 198 0
197 0 0 128 c0 116 -2 128 -20 140 -39 24 -15 77 31 70 33 -5 43 -44 19 -68
-18 -18 -20 -34 -20 -155 l0 -135 -203 0 -202 0 -149 149 c-99 99 -158 151
-177 155 -35 7 -47 40 -23 67 21 23 37 24 59 2z m-1797 -25 c26 -26 7 -78 -28
-78 -9 0 -36 -20 -60 -45 l-44 -45 -212 0 c-176 0 -214 -3 -224 -15 -20 -24
-59 -19 -72 10 -9 21 -8 28 7 45 23 25 40 25 65 0 19 -19 33 -20 223 -20 l203
0 39 40 c31 32 39 47 37 69 -5 41 39 66 66 39z m2832 -102 c6 -8 10 -27 8 -41
-2 -21 22 -50 152 -180 l155 -155 212 0 213 0 0 126 c0 111 -2 129 -20 151
-18 23 -19 29 -6 47 17 27 39 31 60 11 22 -22 20 -52 -4 -65 -19 -10 -20 -21
-20 -150 l0 -140 -217 0 -218 0 -157 157 c-102 102 -168 160 -190 167 -23 8
-34 18 -36 34 -6 44 41 70 68 38z m2584 -42 c9 -3 16 -10 16 -15 0 -5 -9 -4
-20 3 -16 10 -23 10 -36 -4 -14 -14 -15 -20 -4 -32 17 -21 40 -20 56 2 10 12
13 13 9 2 -3 -10 18 -39 59 -79 59 -58 65 -62 85 -49 26 16 54 2 59 -30 4 -29
-40 -51 -63 -32 -8 7 -15 19 -15 26 0 11 -38 14 -210 14 l-210 0 0 -80 0 -80
251 0 c213 0 253 2 266 16 18 17 54 15 61 -4 3 -11 1 -11 -18 0 -18 11 -23 11
-36 -7 -12 -17 -12 -21 1 -34 13 -13 19 -13 35 -3 12 7 20 8 20 2 0 -5 -12
-13 -27 -16 -21 -6 -30 -2 -41 14 -14 22 -19 22 -268 22 l-254 0 0 90 0 90
207 0 207 0 -57 58 c-48 49 -63 58 -84 54 -18 -3 -30 1 -40 13 -17 24 -16 30
3 49 17 18 24 19 48 10z m-543 -84 c25 -14 24 -42 -1 -65 -17 -15 -20 -31 -20
-102 l0 -83 -138 0 -138 0 -39 40 c-26 27 -48 40 -66 40 -48 0 -65 49 -26 74
23 15 51 -3 55 -35 2 -13 22 -43 45 -66 l41 -43 128 0 128 0 0 84 c0 65 -3 85
-15 90 -18 7 -20 47 -3 64 15 15 24 15 49 2z m-6039 -170 c11 -18 24 -20 113
-20 88 0 103 2 118 20 20 24 40 25 61 4 31 -30 13 -74 -30 -74 -12 0 -27 7
-34 15 -19 22 -206 21 -231 -1 -41 -37 -100 16 -63 57 22 25 51 24 66 -1z
m5459 -100 c25 -14 25 -56 -1 -70 -11 -6 -24 -9 -28 -6 -5 3 -62 -49 -128
-115 l-119 -119 130 0 131 0 71 73 c56 56 71 77 67 93 -6 24 21 57 44 52 8 -2
21 -13 29 -25 13 -19 12 -24 -7 -43 -12 -12 -27 -19 -34 -17 -7 3 -46 -28 -87
-69 l-73 -74 -151 0 -150 0 125 125 c109 109 124 129 122 154 -2 20 2 33 15
40 23 13 21 13 44 1z m1423 -471 c30 -43 -15 -82 -57 -49 -24 19 -42 20 -374
20 -337 0 -349 -1 -361 -20 -23 -37 -72 -19 -72 27 0 27 42 42 65 23 11 -9
109 -13 369 -15 340 -4 355 -3 372 16 22 25 39 24 58 -2z m-384 -144 c10 -13
54 -15 275 -15 224 0 264 2 269 15 3 8 17 15 30 15 43 0 58 -59 19 -74 -22 -9
-53 3 -53 20 0 12 -41 14 -263 14 -251 0 -263 -1 -275 -20 -14 -22 -42 -26
-60 -8 -13 13 -16 50 -5 61 12 12 50 7 63 -8z m-8598 -1052 c47 -14 93 -46
115 -83 9 -17 21 -30 25 -30 4 0 8 -9 8 -19 0 -11 4 -21 9 -23 5 -1 11 -23 13
-48 1 -25 7 -48 13 -52 16 -12 2 -16 -55 -18 -80 -2 -80 -2 -80 25 0 42 -38
106 -71 118 -17 7 -27 17 -25 24 3 7 1 15 -5 18 -5 4 -8 1 -7 -7 2 -10 -9 -12
-44 -10 -55 4 -109 -18 -133 -55 -21 -32 -28 -118 -12 -148 16 -32 82 -78 148
-105 144 -59 227 -116 279 -192 29 -43 32 -54 31 -115 -3 -134 -49 -213 -154
-261 -68 -32 -116 -39 -129 -20 -5 9 -8 8 -8 -4 0 -15 -7 -17 -42 -12 -72 10
-109 19 -108 27 0 4 0 34 0 67 l0 59 37 -21 c28 -17 51 -22 97 -20 108 2 166
57 167 156 2 93 -44 144 -181 207 -135 62 -152 72 -139 80 10 6 4 9 -17 9 -20
0 -38 9 -52 25 -27 30 -27 36 -4 28 9 -3 14 -3 10 1 -3 4 -14 9 -25 10 -23 3
-45 44 -40 73 2 12 0 20 -4 17 -5 -3 -9 0 -9 5 0 6 12 12 28 12 l27 1 -29 7
c-17 3 -29 9 -28 14 1 4 2 15 2 25 0 9 5 24 10 32 8 13 11 12 25 -5 16 -20 16
-20 6 2 -6 12 -16 24 -23 27 -10 5 -10 7 0 12 6 3 12 14 12 24 0 44 154 159
193 144 9 -3 17 -2 17 4 0 12 102 8 152 -5z m1477 -5 c10 -25 95 -319 119
-410 8 -35 19 -55 25 -51 6 3 7 1 3 -5 -9 -14 34 -173 45 -167 4 3 11 0 15 -6
4 -8 3 -9 -4 -5 -15 9 -15 -14 -2 -49 5 -14 12 -36 14 -48 4 -19 22 -81 55
-192 25 -83 31 -75 -52 -75 l-74 0 -21 73 c-12 39 -31 112 -44 160 l-22 88
-124 -2 c-120 -3 -124 -4 -133 -27 -11 -29 -12 -62 -1 -46 5 8 13 4 25 -11 12
-17 14 -26 5 -31 -6 -4 -8 -3 -5 3 4 6 0 16 -8 23 -11 9 -15 9 -15 1 0 -7 -4
-10 -10 -6 -8 5 -14 -10 -41 -117 -5 -24 -15 -58 -20 -75 l-11 -33 -69 0 c-44
0 -69 4 -69 11 0 15 46 186 72 267 11 34 17 69 14 78 -3 8 -2 13 2 10 7 -4
149 462 172 564 4 19 13 50 20 68 12 31 14 32 71 32 52 0 60 -3 68 -22z m1118
7 c0 -8 -4 -12 -9 -9 -5 3 -6 10 -3 15 9 13 12 11 12 -6z m-2074 -7 c-1 -4 3
-22 8 -40 5 -18 12 -51 15 -72 2 -21 7 -42 9 -46 3 -4 7 -25 10 -46 2 -22 12
-70 20 -109 8 -38 27 -131 41 -205 13 -74 26 -136 28 -138 6 -5 14 25 21 73 5
41 24 135 51 260 8 39 19 95 24 125 5 30 12 66 15 80 3 14 8 41 11 60 13 68
16 70 114 70 l89 0 0 -501 c0 -276 -1 -505 -3 -508 -2 -3 -31 -5 -63 -3 l-59
4 1 354 c0 195 -3 354 -7 354 -5 0 -9 -13 -9 -30 -1 -16 -2 -33 -3 -37 -18
-78 -57 -268 -61 -297 -2 -12 -15 -77 -30 -146 -14 -69 -29 -141 -32 -162 -6
-40 -31 -52 -82 -39 -26 8 -31 21 -46 119 -3 18 -15 76 -26 130 -24 113 -19
92 -60 304 -18 92 -34 166 -36 164 -2 -2 -4 -164 -4 -360 l-1 -356 -59 0 -59
0 0 38 c-1 53 -1 933 0 955 0 16 9 17 93 15 50 -2 91 -6 90 -10z m1802 -22
c33 -17 66 -30 73 -29 7 1 11 -1 8 -4 -3 -3 4 -18 15 -34 13 -19 26 -26 37
-23 13 4 14 3 4 -4 -13 -9 -7 -62 7 -62 3 0 7 -11 8 -25 1 -14 3 -37 4 -51 1
-17 4 -22 9 -14 5 8 18 10 33 6 14 -3 38 1 57 10 23 12 35 13 43 5 8 -8 5 -11
-11 -11 -12 0 -22 -5 -22 -11 0 -7 12 -9 33 -5 17 3 46 2 62 -3 27 -8 25 -9
-25 -11 -30 -1 -71 -1 -90 -1 -19 1 -42 -4 -50 -10 -11 -8 -5 -9 25 -4 27 4
37 3 30 -4 -5 -5 -30 -11 -55 -13 -42 -3 -45 -5 -52 -41 -11 -53 -36 -98 -72
-129 -20 -18 -24 -26 -12 -21 15 5 18 3 13 -9 -4 -12 -1 -14 14 -11 11 3 22 9
25 14 3 5 40 9 83 9 58 0 82 4 91 15 7 8 23 15 35 15 13 0 25 5 27 12 5 15 58
-38 58 -59 0 -10 6 -13 16 -9 11 4 22 -1 32 -15 9 -13 21 -19 34 -16 15 4 17
3 8 -8 -8 -10 -7 -14 2 -18 9 -4 7 -6 -4 -6 -9 -1 -20 -6 -23 -12 -4 -6 0 -9
11 -7 11 2 18 -2 17 -9 -2 -7 2 -13 8 -13 6 0 9 7 5 15 -3 8 -2 15 3 15 14 0
3 51 -16 73 -16 19 -16 20 0 8 15 -12 17 -11 17 8 0 13 -4 19 -10 16 -6 -4
-13 7 -16 24 -4 19 -13 31 -22 31 -8 0 -13 3 -9 6 9 9 48 -6 42 -17 -4 -5 -1
-9 5 -9 7 0 11 23 10 68 -1 37 -1 72 0 77 1 6 1 55 1 110 l0 100 -115 3 -116
3 0 59 0 60 305 0 c237 0 305 -3 306 -12 1 -7 3 -34 4 -60 l3 -48 -119 0 -119
0 -1 -32 c-1 -18 -1 -37 0 -41 3 -16 3 -103 2 -465 l-1 -363 -72 3 -72 3 0 30
c-1 17 -4 35 -8 40 -4 6 -4 16 0 22 4 6 6 63 4 127 l-3 115 -30 -6 c-17 -3
-35 0 -44 7 -18 15 -45 6 -45 -15 0 -9 -9 -15 -26 -15 -14 0 -23 -4 -19 -10 7
-12 65 -10 65 2 0 4 14 8 30 8 25 0 30 -4 30 -25 0 -14 -9 -34 -20 -45 -12
-12 -17 -26 -13 -36 5 -13 2 -15 -15 -9 -12 3 -22 2 -22 -3 0 -6 -10 -8 -21
-5 -15 4 -27 -1 -40 -18 l-19 -24 0 30 0 30 -18 -23 c-12 -15 -24 -21 -35 -16
-22 8 -70 -4 -62 -16 4 -6 -8 -10 -26 -10 -28 0 -31 -3 -27 -25 3 -13 1 -22
-3 -19 -5 3 -9 14 -9 24 0 10 -4 21 -10 25 -6 4 -6 15 1 32 5 15 8 32 5 39 -3
8 3 12 15 11 10 -1 19 -5 19 -9 0 -4 9 -8 19 -8 17 0 36 25 33 42 -1 4 13 5
31 3 25 -4 27 -3 12 4 l-20 9 20 7 c59 20 57 25 -5 20 -36 -3 -94 -8 -130 -10
-57 -4 -55 -2 25 10 l90 13 -90 -5 c-49 -3 -94 -11 -98 -17 -6 -7 -7 -4 -3 6
3 10 1 20 -4 23 -6 4 -10 12 -10 18 0 7 7 3 15 -7 8 -11 18 -17 21 -13 9 9
-15 37 -31 37 -7 0 -15 -6 -18 -14 -7 -18 34 -97 46 -89 6 3 7 1 3 -5 -4 -6 0
-24 9 -39 14 -25 15 -25 9 -4 -4 16 -3 21 5 17 6 -4 11 -1 11 6 0 8 5 6 11 -5
6 -10 8 -21 5 -24 -3 -4 -6 0 -7 8 0 8 -5 1 -10 -16 -7 -23 -5 -33 6 -41 8 -6
13 -13 10 -15 -2 -3 9 -32 25 -65 l30 -59 -63 -5 c-77 -6 -89 -1 -112 49 -10
22 -22 38 -27 35 -5 -3 -8 2 -6 12 2 11 -2 18 -8 17 -7 -1 -10 6 -7 16 2 10
-2 25 -11 33 -8 9 -12 19 -8 23 4 5 2 5 -5 2 -12 -8 -12 -25 1 -45 5 -8 4 -18
-2 -24 -7 -7 -10 -4 -9 8 2 14 -4 18 -18 16 -16 -2 -17 -1 -5 7 8 5 11 13 7
17 -4 4 -13 2 -19 -4 -17 -17 -28 -15 -28 7 0 13 10 22 34 28 l34 8 -33 68
c-35 72 -48 92 -45 67 5 -35 0 -40 -42 -39 -28 1 -36 3 -23 7 11 4 20 15 20
25 0 25 19 22 27 -5 7 -26 8 -24 13 12 5 35 -14 80 -34 80 -14 0 -14 2 -1 10
10 7 -9 10 -62 10 l-78 0 0 -219 0 -219 -72 1 -73 2 -1 508 -2 508 207 -3
c205 -3 206 -3 266 -32z m1937 -103 c1 -76 1 -173 0 -216 l-1 -77 166 2 167 3
0 210 1 210 67 0 68 0 0 -80 c2 -260 -1 -920 -4 -922 -7 -7 -107 -9 -118 -2
-9 6 -13 63 -14 221 -1 117 -2 220 -3 229 -1 14 -22 17 -166 18 l-166 2 1
-198 c0 -109 1 -215 0 -235 l0 -38 -70 0 -70 0 0 505 0 505 70 0 70 0 2 -137z
m880 110 c36 -35 39 -83 5 -83 -12 0 -39 -14 -59 -30 -36 -30 -37 -30 -41 -8
-3 15 -5 10 -6 -14 -2 -55 -9 -65 -39 -62 -24 3 -25 3 -4 -4 25 -8 30 -29 6
-24 -8 2 -14 -2 -14 -8 0 -5 6 -9 13 -7 7 1 11 -6 9 -18 -17 -99 -23 -253 -12
-340 6 -49 12 -102 14 -117 1 -15 8 -34 15 -42 8 -10 9 -16 1 -21 -5 -3 -10
-12 -9 -18 0 -8 2 -8 6 1 3 8 16 -3 34 -28 16 -22 35 -40 42 -41 6 0 3 -4 -8
-9 -12 -5 39 -9 134 -9 151 -1 154 -1 137 18 -10 11 -25 17 -35 14 -25 -6 -35
12 -21 37 11 21 40 28 40 10 0 -5 8 -10 18 -11 11 0 13 -2 4 -6 -10 -4 -5 -15
18 -38 17 -18 28 -35 23 -38 -6 -4 -51 -7 -101 -8 l-91 -1 -3 -31 c-2 -17 -10
-33 -18 -35 -12 -4 -13 -3 -2 10 10 12 10 17 -1 27 -11 9 -14 5 -12 -17 1 -27
35 -47 35 -21 0 10 3 10 12 1 6 -6 9 -14 6 -17 -19 -19 -135 -8 -187 18 -55
27 -141 125 -141 160 0 8 -6 20 -14 26 -7 6 -14 21 -14 34 0 12 -6 58 -15 102
-14 81 -15 231 0 335 4 30 8 60 8 65 5 50 59 155 99 194 27 26 116 79 135 81
3 0 18 -12 33 -27z m171 7 c20 -6 37 -15 37 -20 0 -5 17 -26 38 -47 20 -20 29
-31 20 -24 -15 11 -19 11 -24 -4 -4 -10 -1 -21 7 -27 12 -8 11 -9 -1 -5 -8 2
-15 15 -16 29 -1 29 -23 73 -24 47 0 -9 -7 -19 -15 -23 -8 -3 -15 -17 -15 -31
0 -22 3 -24 18 -16 14 7 19 6 19 -4 0 -7 -6 -11 -13 -8 -6 2 -15 -1 -20 -8 -4
-8 -3 -10 4 -5 7 4 14 -3 18 -19 3 -13 10 -22 15 -19 5 3 6 -2 3 -10 -4 -11 2
-19 17 -25 24 -10 24 -10 -3 -10 -23 -1 -31 6 -43 36 -9 21 -23 45 -32 55 -19
21 -88 58 -108 58 -9 0 -15 10 -15 25 0 13 -12 36 -27 50 l-28 27 75 -5 c41
-3 92 -10 113 -17z m327 -24 c0 -25 5 -48 10 -51 6 -4 10 13 10 44 0 28 5 51
10 51 6 0 10 -28 10 -63 0 -62 0 -63 28 -62 21 0 28 -5 30 -22 3 -20 9 -23 53
-23 41 0 49 -3 49 -18 0 -11 -9 -27 -20 -37 -28 -25 -25 -35 11 -35 19 0 28
-4 24 -11 -4 -5 -17 -9 -30 -7 -12 1 -30 -4 -39 -11 -15 -12 -19 -12 -31 0 -7
8 -15 23 -17 34 -2 16 3 20 25 20 15 0 37 11 49 23 l22 22 -49 0 c-28 0 -62 6
-77 14 -25 13 -26 13 -16 -3 15 -24 3 -51 -22 -51 -26 0 -37 27 -22 51 17 27
16 45 -1 30 -14 -11 -27 -5 -27 11 0 5 4 7 9 3 5 -3 12 -1 16 5 3 6 -1 13 -9
16 -12 5 -16 20 -16 60 0 30 5 54 10 54 6 0 10 -20 10 -44z m161 28 c12 -14
11 -16 -5 -13 -11 2 -21 10 -24 17 -5 17 13 15 29 -4z m443 5 c-7 -12 -76 -20
-87 -10 -7 5 -30 11 -52 14 -22 2 1 3 52 3 50 -1 89 -4 87 -7z m606 -50 c0
-37 -4 -58 -10 -54 -18 11 -12 115 7 115 2 0 3 -27 3 -61z m61 -43 c5 -6 9 12
9 49 0 42 3 56 11 48 5 -5 9 -32 7 -59 -3 -47 -4 -49 -34 -49 -31 -1 -31 0
-27 45 7 68 17 81 21 25 2 -27 7 -54 13 -59z m-356 84 c4 -6 57 -10 126 -10
l119 0 0 -39 c0 -22 -4 -43 -10 -46 -6 -4 -10 10 -10 34 l0 41 -107 0 c-81 0
-110 -4 -123 -15 -10 -9 -25 -13 -34 -9 -16 6 -22 35 -9 47 10 10 41 8 48 -3z
m-135 -169 c0 -83 -3 -152 -7 -154 -5 -3 -8 64 -8 149 0 85 3 154 8 154 4 0 7
-67 7 -149z m-646 116 c8 -12 7 -21 -6 -33 -9 -9 -21 -13 -27 -10 -17 11 -13
29 4 22 9 -3 15 0 15 10 0 10 -6 14 -15 10 -15 -6 -20 5 -8 18 10 9 25 3 37
-17z m753 -63 c3 -8 1 -20 -6 -27 -17 -17 -14 -97 4 -97 8 0 15 -5 15 -11 0
-6 -10 -9 -22 -7 -20 3 -23 10 -26 53 -2 27 -8 55 -14 62 -6 7 -8 20 -4 28 7
20 45 19 53 -1z m-3897 2 c0 -2 -7 -7 -16 -10 -8 -3 -12 -2 -9 4 6 10 25 14
25 6z m2805 -6 c3 -5 1 -10 -4 -10 -6 0 -11 5 -11 10 0 6 2 10 4 10 3 0 8 -4
11 -10z m723 -62 l107 -2 -104 -3 c-63 -2 -111 -9 -120 -16 -12 -10 -14 -9 -8
6 4 10 7 24 8 30 0 8 2 8 6 0 3 -9 37 -14 111 -15z m99 -58 c0 -16 -4 -30 -9
-30 -4 0 -8 4 -8 9 0 6 -44 8 -104 5 -64 -2 -107 0 -111 6 -4 6 31 10 98 10
81 0 107 3 117 15 16 20 17 20 17 -15z m-767 -10 c0 -6 -30 -10 -69 -10 -39 0
-73 5 -76 10 -4 6 22 10 69 10 44 0 76 -4 76 -10z m-97 -27 c-13 -2 -23 -9
-23 -14 0 -6 5 -7 12 -3 6 4 8 3 5 -3 -11 -18 33 -48 71 -48 68 0 50 -20 -21
-23 l-69 -3 23 -20 c12 -10 20 -21 17 -24 -7 -8 -48 34 -48 50 0 14 12 19 33
16 16 -2 6 21 -11 26 -10 2 -19 15 -20 29 -1 20 2 24 26 23 23 -2 24 -2 5 -6z
m42 -23 c3 -6 -4 -10 -17 -10 -18 0 -20 2 -8 10 19 12 18 12 25 0z m-2405 -14
c0 -2 -7 -7 -16 -10 -8 -3 -12 -2 -9 4 6 10 25 14 25 6z m3145 -6 c3 -5 24
-10 46 -10 21 0 39 -4 39 -10 0 -5 -16 -10 -35 -10 -19 0 -44 -5 -55 -12 -10
-7 -23 -9 -27 -4 -4 4 0 12 10 17 9 6 15 15 12 20 -4 5 -11 7 -16 4 -5 -4 -9
-1 -9 4 0 14 27 14 35 1z m-437 -27 c4 -25 -33 -42 -51 -24 -6 6 -24 11 -39
11 -15 0 -28 5 -28 10 0 6 13 10 29 10 17 0 33 5 36 11 12 18 50 6 53 -18z
m320 18 c20 -12 10 -45 -14 -49 -31 -4 -49 22 -29 42 19 18 25 19 43 7z
m-3234 -31 c-6 -6 -10 -3 -10 10 0 13 4 16 10 10 7 -7 7 -13 0 -20z m3051 0
c-3 -5 -28 -10 -55 -10 -27 0 -52 5 -55 10 -4 6 17 10 55 10 38 0 59 -4 55
-10z m-2115 -23 c0 -2 -12 -14 -27 -28 l-28 -24 24 28 c23 25 31 32 31 24z
m1750 -17 c0 -4 -13 -22 -30 -40 -16 -18 -27 -36 -24 -41 3 -5 2 -9 -3 -8 -19
5 -41 -13 -36 -30 5 -21 -21 -45 -42 -37 -19 7 -19 40 0 56 8 7 15 9 15 4 0
-4 16 7 35 26 19 18 31 38 28 44 -3 6 -2 8 2 3 11 -10 46 23 38 36 -3 6 -1 7
5 3 7 -4 12 -11 12 -16z m-3025 0 c-3 -5 -11 -10 -16 -10 -6 0 -7 5 -4 10 3 6
11 10 16 10 6 0 7 -4 4 -10z m3982 -16 c3 -8 -1 -23 -10 -32 -15 -14 -18 -14
-37 3 -15 14 -17 21 -9 32 16 18 48 17 56 -3z m-3871 -5 c5 -9 -1 -10 -20 -5
-16 4 -33 2 -40 -3 -6 -5 -31 -12 -54 -14 -37 -5 -41 -3 -31 9 7 8 17 13 23
11 6 -2 20 -1 31 4 30 12 83 10 91 -2z m2798 -18 c-2 -2 3 -9 12 -16 14 -10
14 -13 -3 -26 -16 -13 -17 -13 -4 4 14 18 2 24 -15 7 -6 -6 -10 2 -11 24 0 28
2 32 12 23 7 -7 11 -14 9 -16z m1183 11 c-10 -10 -17 -26 -17 -34 0 -9 -7 -21
-16 -28 -12 -11 -18 -10 -31 3 -19 19 -10 47 15 47 11 0 25 7 32 15 7 8 17 15
23 15 5 0 3 -8 -6 -18z m137 -35 c-30 -32 -58 -53 -71 -54 -13 0 -20 3 -17 8
3 5 11 9 18 9 6 0 32 20 56 45 62 63 74 56 14 -8z m-824 33 c0 -5 -25 -10 -55
-10 -30 0 -55 5 -55 10 0 6 25 10 55 10 30 0 55 -4 55 -10z m205 0 c-3 -5 -28
-10 -56 -10 -27 0 -49 5 -49 10 0 6 25 10 56 10 34 0 53 -4 49 -10z m160 0
c-3 -5 -31 -10 -61 -10 -30 0 -54 5 -54 10 0 6 27 10 61 10 37 0 58 -4 54 -10z
m-3628 -26 c-3 -3 -12 -4 -19 -1 -8 3 -5 6 6 6 11 1 17 -2 13 -5z m1032 -30
c-12 -13 -24 -23 -25 -21 -4 3 -4 17 -1 15 9 -7 36 25 30 35 -4 6 -1 7 6 2 9
-5 7 -13 -10 -31z m-1199 16 c0 -10 -32 -30 -49 -30 -6 0 -11 5 -11 10 0 6 9
10 20 10 11 0 20 5 20 10 0 6 5 10 10 10 6 0 10 -4 10 -10z m-782 -25 c-3 -3
-9 2 -12 12 -6 14 -5 15 5 6 7 -7 10 -15 7 -18z m892 15 c0 -5 -20 -10 -45
-10 -25 0 -45 5 -45 10 0 6 20 10 45 10 25 0 45 -4 45 -10z m-910 -20 c0 -5
-5 -10 -11 -10 -5 0 -7 5 -4 10 3 6 8 10 11 10 2 0 4 -4 4 -10z m1375 -30 c3
-5 1 -10 -4 -10 -6 0 -11 5 -11 10 0 6 2 10 4 10 3 0 8 -4 11 -10z m10 -30 c2
-3 -6 -6 -17 -5 -12 1 -23 6 -25 12 -4 12 34 6 42 -7z m518 3 c-6 -16 -3 -15
18 2 36 30 8 -3 -60 -71 -34 -34 -61 -56 -61 -51 0 6 -3 7 -7 3 -5 -4 -8 -12
-8 -18 0 -19 -129 -138 -139 -128 -6 6 -1 19 14 35 15 15 26 21 30 15 4 -7 11
-6 20 5 10 12 10 15 0 15 -8 0 20 33 61 74 40 41 76 70 80 65 3 -5 14 0 25 12
19 22 19 22 -1 15 -17 -6 -17 -4 4 18 29 31 33 32 24 9z m2352 7 c-3 -5 -28
-10 -55 -10 -27 0 -52 5 -55 10 -4 6 17 10 55 10 38 0 59 -4 55 -10z m160 0
c-3 -5 -28 -10 -55 -10 -27 0 -52 5 -55 10 -4 6 17 10 55 10 38 0 59 -4 55
-10z m-365 -8 c0 -4 -20 -28 -45 -52 -51 -50 -62 -44 -13 7 l32 33 -32 0 c-18
0 -32 5 -32 10 0 6 20 10 45 10 25 0 45 -4 45 -8z m772 -21 c18 -15 39 -26 46
-24 6 3 12 0 12 -6 0 -6 -7 -11 -16 -11 -9 0 -14 -6 -11 -12 2 -7 10 -12 16
-10 6 1 11 -7 11 -18 0 -18 -7 -20 -55 -20 -30 0 -54 -3 -54 -7 1 -5 1 -27 0
-50 -1 -34 -5 -43 -18 -42 -11 0 -13 3 -5 6 7 3 12 25 12 59 l0 54 46 0 c40 0
45 2 34 15 -7 8 -9 15 -4 15 4 0 -5 14 -21 30 -16 17 -39 30 -52 30 -14 0 -21
4 -18 10 11 18 44 10 77 -19z m-4402 5 c0 -2 -16 -6 -35 -8 -19 -2 -35 0 -35
4 0 4 16 8 35 8 19 0 35 -2 35 -4z m40 -11 c0 -8 -7 -15 -15 -15 -13 0 -14 3
-3 15 16 18 18 18 18 0z m914 6 c3 -5 -1 -11 -9 -15 -8 -3 -17 0 -21 6 -4 7
-3 8 4 4 7 -4 12 -2 12 3 0 13 7 14 14 2z m2476 1 c0 -5 -11 -19 -25 -32 -13
-12 -23 -27 -22 -33 1 -6 -2 -11 -8 -12 -16 -1 -36 -16 -31 -23 2 -4 -13 -6
-35 -4 -40 4 -45 22 -5 22 24 0 81 52 69 64 -4 4 0 4 10 0 11 -4 19 0 23 10 6
17 24 22 24 8z m-3377 -37 c-10 -7 -20 -12 -21 -10 -7 7 23 33 31 28 5 -3 0
-11 -10 -18z m-116 -82 c-2 -21 -4 -6 -4 32 0 39 2 55 4 38 2 -18 2 -50 0 -70z
m43 47 c0 -27 -4 -50 -10 -50 -5 0 -10 23 -10 50 0 28 5 50 10 50 6 0 10 -22
10 -50z m3786 25 c5 -12 27 -15 111 -15 67 0 102 -4 98 -10 -3 -5 -45 -10 -92
-10 l-87 0 28 -29 c15 -16 34 -28 43 -27 8 0 20 -7 26 -16 17 -26 -15 -57 -37
-38 -9 7 -16 17 -16 23 0 22 -72 86 -89 79 -14 -5 -14 -3 -3 10 9 11 10 18 2
23 -5 3 -10 10 -10 16 0 15 20 10 26 -6z m358 -41 c21 -8 21 -43 0 -51 -15 -5
-64 14 -64 26 0 4 10 11 23 17 12 7 23 12 24 13 1 0 8 -2 17 -5z m-3374 -14
c0 -5 -5 -10 -11 -10 -5 0 -7 5 -4 10 3 6 8 10 11 10 2 0 4 -4 4 -10z m-3108
-55 c3 -31 12 -63 21 -73 13 -14 17 -37 17 -90 0 -70 -1 -72 -25 -72 -14 0
-25 5 -25 10 0 6 7 10 15 10 8 0 15 5 15 10 0 7 -6 7 -18 1 -12 -6 -23 -4 -37
7 -32 27 -65 73 -59 83 3 5 0 9 -6 9 -7 0 -10 7 -6 15 3 8 1 15 -5 15 -6 0 -9
6 -6 13 2 6 -3 17 -11 23 -11 8 -13 21 -7 52 l7 42 63 0 63 0 4 -55z m5645 23
c-3 -8 -6 -5 -6 6 -1 11 2 17 5 13 3 -3 4 -12 1 -19z m-3617 -2 c0 -2 -7 -7
-16 -10 -8 -3 -12 -2 -9 4 6 10 25 14 25 6z m310 -6 c0 -5 -4 -10 -10 -10 -5
0 -10 5 -10 10 0 6 5 10 10 10 6 0 10 -4 10 -10z m147 -20 l1 -25 -12 24 -13
24 -5 -26 c-5 -27 10 -32 40 -14 8 6 12 2 12 -10 0 -16 -48 -48 -58 -39 -2 3
-4 21 -5 40 -1 32 -4 36 -29 36 -15 0 -28 4 -28 8 0 4 21 7 48 7 43 0 47 -2
49 -25z m823 6 c0 -2 -7 -7 -16 -10 -8 -3 -12 -2 -9 4 6 10 25 14 25 6z
m-1299 -23 c13 -16 12 -17 -3 -4 -17 13 -22 21 -14 21 2 0 10 -8 17 -17z m35
2 c-1 -8 -5 -17 -8 -21 -5 -4 -4 16 1 34 3 9 9 -1 7 -13z m4430 0 c4 -9 19
-15 35 -15 31 0 42 -20 12 -20 -17 -1 -17 -1 0 -14 19 -15 25 -106 7 -106 -5
0 -10 18 -10 39 0 22 -4 43 -10 46 -5 3 -10 15 -10 26 0 22 -4 23 -30 7 -16
-10 -23 -10 -36 4 -14 14 -15 20 -4 32 16 20 39 20 46 1z m-722 -22 c-7 -30
-24 -67 -28 -61 -2 1 -1 22 2 46 3 27 9 42 18 42 11 0 13 -7 8 -27z m-3991
-186 c-3 -5 -29 15 -59 44 -29 29 -51 55 -49 58 3 2 -3 14 -12 25 -10 12 15
-10 54 -48 40 -38 69 -74 66 -79z m1787 88 c-23 -24 -37 -32 -44 -25 -7 7 -4
16 7 28 17 16 18 16 11 -3 -7 -18 -6 -18 9 -6 9 7 14 18 10 24 -3 5 -1 7 5 3
6 -3 13 -2 17 4 3 5 9 10 13 10 3 0 -9 -16 -28 -35z m2152 11 c7 4 8 2 4 -5
-9 -14 -36 3 -36 23 0 6 5 3 11 -7 6 -9 15 -14 21 -11z m261 -30 c-32 -30 -60
-50 -62 -44 -5 15 80 98 102 98 13 0 1 -16 -40 -54z m-374 25 c9 -6 6 -8 -13
-8 -14 0 -23 3 -20 8 7 11 15 11 33 0z m1369 -29 c3 -9 -33 -12 -138 -12 -83
0 -139 4 -136 9 4 5 58 7 126 4 87 -3 120 -1 120 7 0 15 22 8 28 -8z m37 -2
c7 0 16 6 18 13 4 7 6 6 6 -5 1 -9 -5 -18 -11 -21 -20 -7 -38 4 -37 22 0 10 2
11 6 4 2 -7 11 -13 18 -13z m129 -7 c3 -8 4 -19 0 -24 -13 -22 25 -6 51 21 16
17 33 30 39 30 5 0 -4 -15 -22 -33 -18 -18 -32 -40 -32 -49 0 -8 -7 -21 -15
-28 -20 -16 -49 6 -42 31 3 10 0 17 -5 16 -19 -4 -33 30 -19 47 14 17 37 12
45 -11z m-1107 -13 c0 -27 -2 -29 -15 -16 -8 8 -12 22 -9 30 10 26 24 18 24
-14z m1256 -19 c-9 -12 -23 18 -16 35 6 17 8 17 13 -6 4 -14 5 -27 3 -29z
m-1091 14 c14 -18 29 -25 54 -25 19 0 34 -4 34 -10 0 -5 -15 -10 -33 -10 -23
0 -41 8 -60 28 -26 27 -33 42 -21 42 3 0 15 -11 26 -25z m-2712 -30 c-22 -23
-37 -32 -44 -25 -12 12 23 53 41 46 7 -3 15 -1 18 4 4 6 9 10 13 10 3 0 -9
-16 -28 -35z m2108 23 c-18 -12 11 -29 37 -22 18 4 18 4 2 -6 -9 -6 -22 -8
-28 -5 -5 4 -19 -3 -30 -16 -19 -22 -20 -22 -34 -3 -8 10 -13 28 -12 39 1 17
8 21 39 21 24 0 34 -2 26 -8z m-2768 -2 c0 -3 -4 -8 -10 -11 -5 -3 -10 -1 -10
4 0 6 5 11 10 11 6 0 10 -2 10 -4z m4017 -12 c3 -8 -2 -23 -11 -32 -15 -15
-17 -15 -32 0 -21 21 -11 48 16 48 11 0 23 -7 27 -16z m-291 -41 c-10 -10 -19
5 -10 18 6 11 8 11 12 0 2 -7 1 -15 -2 -18z m-4748 5 c-2 -7 4 -11 12 -10 8 2
12 0 8 -4 -4 -4 -2 -14 4 -23 7 -9 0 -5 -14 8 -15 13 -25 28 -22 32 8 13 14
11 12 -3z m4419 -5 c3 -7 -3 -9 -16 -6 -12 3 -21 10 -21 15 0 13 32 6 37 -9z
m-3583 -25 c-3 -4 -11 -5 -19 -1 -21 7 -19 12 4 10 11 0 18 -5 15 -9z m764
-16 c10 7 4 -2 -12 -20 -41 -44 -59 -31 -22 17 7 9 11 10 14 2 3 -9 8 -9 20 1z
m-1493 -51 c3 -5 2 -12 -3 -15 -5 -3 -9 1 -9 9 0 17 3 19 12 6z m1404 -47
c-22 -23 -40 -24 -38 -1 0 8 2 8 6 -1 4 -10 9 -9 24 4 10 9 16 21 12 27 -4 6
-1 7 6 2 9 -5 7 -13 -10 -31z m-1314 -43 c3 -5 2 -12 -3 -15 -5 -3 -9 1 -9 9
0 17 3 19 12 6z m1255 -14 c0 -2 -15 -16 -32 -33 l-33 -29 29 33 c28 30 36 37
36 29z m-70 -71 c0 -2 -8 -10 -17 -17 -16 -13 -17 -12 -4 4 13 16 21 21 21 13z
m-166 -41 c0 -16 -4 -42 -8 -57 l-8 -28 38 14 c39 13 84 5 84 -16 0 -12 -18
-10 -22 4 -3 9 -19 8 -62 -4 l-57 -17 7 22 c19 59 23 92 11 99 -21 14 -27 9
-38 -37 -6 -25 -14 -45 -17 -45 -4 0 -23 17 -44 37 -36 35 -39 36 -55 20 -15
-15 -11 -22 70 -102 48 -47 92 -85 97 -85 16 0 24 30 12 42 -8 8 3 16 41 29
63 22 62 22 48 5 -6 -7 -24 -16 -40 -19 -22 -5 -28 -11 -25 -24 3 -11 -3 -27
-16 -38 -20 -18 -21 -18 -114 71 -51 49 -94 96 -95 105 0 9 8 24 18 33 18 17
21 16 59 -19 l40 -36 7 33 c8 38 21 49 50 46 15 -2 20 -10 19 -33z m-853 -42
c12 -16 12 -17 -2 -6 -9 7 -20 9 -24 5 -5 -4 -5 -1 -1 6 9 16 11 15 27 -5z
m652 -40 c-18 -7 -16 -42 3 -50 25 -9 41 14 26 37 -22 36 -2 21 74 -55 45 -46
72 -80 68 -87 -6 -9 -9 -8 -12 2 -3 8 -28 39 -55 67 -39 41 -53 50 -64 42 -21
-18 -16 -32 32 -79 24 -24 42 -46 40 -49 -3 -3 -25 15 -49 38 l-44 44 5 -42
c6 -41 -10 -91 -29 -91 -5 0 -2 10 6 22 51 72 -29 172 -117 147 -28 -7 -40
-19 -57 -54 -22 -45 -21 -72 4 -105 6 -9 1 -5 -11 8 -69 71 41 205 134 163 22
-10 25 -10 19 5 -7 17 22 59 33 48 3 -4 0 -9 -6 -11z m-45 -121 c6 -9 12 -25
12 -36 -1 -16 -4 -13 -15 12 -11 24 -20 32 -40 32 -34 0 -49 -36 -29 -67 8
-13 11 -23 6 -23 -14 0 -33 51 -26 72 11 37 65 43 92 10z m187 -62 c-3 -5 -12
-10 -18 -10 -7 0 -6 4 3 10 19 12 23 12 15 0z m-211 -25 c-4 -8 -11 -15 -16
-15 -6 0 -5 6 2 15 7 8 14 15 16 15 2 0 1 -7 -2 -15z m-131 -42 c-7 -2 -19 -2
-25 0 -7 3 -2 5 12 5 14 0 19 -2 13 -5z m422 -23 c3 -5 1 -10 -4 -10 -6 0 -11
5 -11 10 0 6 2 10 4 10 3 0 8 -4 11 -10z m-65 -10 c0 -5 -5 -10 -11 -10 -5 0
-7 5 -4 10 3 6 8 10 11 10 2 0 4 -4 4 -10z m-380 -34 c0 -3 -4 -8 -10 -11 -5
-3 -10 -1 -10 4 0 6 5 11 10 11 6 0 10 -2 10 -4z m-4548 -306 c12 -19 24 -20
268 -20 244 0 256 1 268 20 28 45 97 7 72 -40 -13 -24 -52 -26 -70 -5 -10 13
-53 15 -270 15 -217 0 -260 -2 -270 -15 -18 -21 -57 -19 -70 5 -15 28 4 60 35
60 14 0 30 -9 37 -20z m215 -140 c17 -19 30 -20 368 -20 339 0 351 1 363 20
25 41 93 10 76 -34 -9 -24 -52 -31 -72 -13 -25 23 -719 25 -728 3 -9 -24 -43
-30 -65 -10 -23 21 -24 32 -2 56 21 23 39 23 60 -2z m1544 -324 c-87 -87 -122
-129 -118 -140 15 -38 -28 -75 -63 -56 -38 20 -19 80 25 80 13 0 63 42 135
115 l115 115 -130 0 -131 0 -69 -70 c-59 -59 -69 -75 -67 -99 6 -51 -54 -65
-79 -19 -13 24 13 58 45 58 13 0 48 27 91 70 l69 70 151 0 150 0 -124 -124z
m-1534 -171 c7 -12 52 -15 263 -17 l255 -3 0 -85 0 -85 -203 -5 -203 -5 54
-54 c41 -40 60 -52 74 -47 13 4 26 -1 37 -13 37 -40 -15 -92 -55 -55 -11 9
-17 25 -14 33 3 11 -17 39 -59 80 -59 58 -65 62 -85 49 -38 -23 -79 23 -51 57
18 21 48 18 62 -5 12 -19 24 -20 220 -20 l208 0 0 75 0 75 -254 0 c-216 0
-255 -2 -260 -15 -7 -20 -40 -19 -60 1 -21 20 -20 30 4 54 16 16 25 18 40 10
10 -6 23 -17 27 -25z m2668 -185 c88 -88 167 -160 176 -160 26 0 55 -38 43
-57 -32 -51 -79 -39 -79 21 0 33 -12 48 -150 186 l-150 150 -217 0 -218 0 0
-125 c0 -112 2 -127 20 -145 26 -26 25 -46 -4 -65 -29 -19 -54 -10 -63 23 -4
19 -1 30 15 43 21 16 22 26 22 153 l0 136 223 0 222 0 160 -160z m-1561 106
c26 -25 54 -42 61 -40 23 9 55 -15 55 -42 0 -17 -8 -28 -26 -36 -23 -11 -29
-10 -44 10 -10 12 -16 30 -14 39 3 12 -9 32 -35 56 l-39 37 -131 0 -131 0 0
-76 c0 -60 4 -81 20 -101 32 -41 -4 -88 -49 -63 -27 14 -28 56 -1 70 18 9 20
21 20 100 l0 90 133 0 133 0 48 -44z m786 37 c0 -4 -46 -53 -101 -109 -84 -84
-100 -105 -91 -119 23 -43 -31 -86 -65 -52 -22 21 -9 65 21 73 12 3 65 48 117
100 l94 94 -135 0 -135 0 -85 -85 -85 -85 -197 0 -198 0 0 -85 0 -85 -133 0
-134 0 5 -30 c3 -21 0 -32 -12 -36 -12 -5 -16 -20 -16 -70 l0 -64 332 0 332 0
-43 44 c-35 36 -48 43 -78 42 -64 -2 -73 65 -10 72 21 3 29 -3 39 -25 6 -15
37 -54 67 -85 l55 -58 -352 0 -352 0 0 65 c0 55 -3 66 -21 76 -16 8 -20 18
-17 40 4 25 1 29 -18 29 -12 0 -27 -7 -34 -15 -27 -33 -75 -7 -68 37 4 32 52
38 70 9 12 -20 22 -21 190 -21 l178 0 0 85 0 85 198 0 198 0 92 90 91 90 151
0 c82 0 150 -3 150 -7z m4690 -28 c10 -12 36 -15 115 -15 79 0 105 3 115 15
29 35 90 2 74 -40 -14 -35 -66 -41 -78 -9 -4 11 -28 14 -108 14 -90 0 -104 -2
-124 -21 -22 -21 -25 -21 -49 -5 -28 18 -30 28 -15 57 13 23 52 25 70 4z
m-2676 -60 c11 -12 42 -15 140 -15 l126 0 0 -85 0 -85 235 0 235 0 0 -78 c0
-66 3 -82 20 -97 25 -23 25 -37 0 -60 -17 -15 -24 -16 -45 -7 -31 14 -34 55
-5 75 18 13 21 23 18 83 l-3 69 -237 3 -238 2 0 80 0 80 -115 0 c-104 0 -115
-2 -125 -20 -20 -38 -80 -19 -80 25 0 42 44 60 74 30z m-199 -195 c100 -100
157 -150 171 -150 45 0 57 -50 19 -76 -18 -12 -24 -11 -44 2 -18 13 -22 23
-18 43 5 25 -10 43 -136 169 l-142 141 -193 3 -192 3 -1 -60 c0 -33 -2 -91 -3
-128 -2 -57 1 -70 16 -78 22 -12 24 -52 3 -69 -19 -16 -45 -9 -62 17 -13 19
-12 24 6 42 19 19 21 33 21 156 l0 135 203 0 202 0 150 -150z m-3031 88 c8
-13 8 -23 0 -35 -15 -24 -62 -29 -70 -9 -5 13 -24 16 -100 16 l-94 0 0 -148
c0 -137 2 -150 20 -167 37 -34 4 -95 -37 -69 -24 15 -29 62 -9 70 14 5 16 30
16 170 l0 164 99 0 c77 0 101 3 111 15 16 20 49 16 64 -7z m5926 -88 c23 -44
-38 -83 -70 -45 -7 8 -25 15 -41 15 l-29 0 0 -83 0 -83 44 -43 c40 -39 45 -42
65 -29 28 17 55 1 59 -36 l3 -26 137 0 c124 0 138 2 158 21 28 26 61 18 70
-17 12 -48 -37 -72 -71 -34 -17 19 -30 20 -232 19 l-213 -1 0 -54 0 -54 -75 0
c-57 0 -77 -4 -81 -15 -9 -24 -43 -29 -65 -9 -23 21 -24 32 -2 56 21 23 38 23
63 -2 17 -17 31 -20 83 -18 l62 3 3 53 3 52 40 0 c25 0 39 5 39 13 0 7 -25 37
-55 67 l-55 54 0 88 0 88 39 0 c31 0 41 4 46 20 4 14 15 20 35 20 19 0 33 -7
40 -20z m-316 -22 c15 -24 -3 -52 -37 -56 -18 -2 -30 3 -39 17 -12 20 -22 21
-213 21 l-201 0 -42 -43 c-32 -32 -42 -51 -42 -75 0 -38 -29 -59 -60 -42 -35
19 -20 80 20 80 9 0 36 20 60 45 l44 45 212 0 c179 0 214 2 224 16 17 19 60
14 74 -8z m-5766 -30 c2 -19 -3 -31 -17 -40 -20 -12 -21 -22 -21 -150 l0 -138
-134 0 -134 0 -111 119 c-69 73 -118 118 -126 115 -21 -8 -55 14 -55 36 0 10
10 26 22 34 28 20 56 5 60 -33 2 -20 34 -63 103 -140 l100 -111 133 0 132 0 0
129 c0 102 -3 131 -15 141 -33 27 -9 73 35 68 19 -2 26 -10 28 -30z m1142 -85
c0 -95 2 -109 21 -129 21 -22 21 -25 5 -49 -19 -29 -38 -32 -60 -9 -20 20 -20
48 -1 64 12 10 15 36 15 114 l0 101 -72 -1 -73 -2 -3 -72 c-3 -63 0 -75 18
-92 27 -26 25 -56 -5 -70 -21 -9 -28 -8 -45 7 -25 23 -25 37 0 60 17 15 20 31
20 102 l0 83 90 0 90 0 0 -107z m1120 67 c11 -21 -2 -60 -20 -60 -6 0 -10 -57
-10 -140 l0 -140 128 0 128 0 43 -44 c40 -40 46 -43 68 -33 22 10 28 8 44 -12
17 -21 18 -26 6 -45 -8 -12 -22 -22 -31 -24 -21 -4 -46 15 -46 36 0 9 -21 38
-47 64 l-47 48 -133 0 -133 0 0 145 c0 88 -4 145 -10 145 -16 0 -23 49 -10 65
18 21 57 19 70 -5z m1334 -6 c9 -8 16 -20 16 -25 0 -5 9 -4 20 3 15 10 25 10
38 2 23 -15 28 -62 8 -70 -13 -5 -16 -24 -16 -105 l0 -99 183 0 c171 0 183 1
195 20 23 37 72 19 72 -27 0 -29 -33 -48 -60 -33 -11 6 -20 15 -20 20 0 6 -76
10 -195 10 l-195 0 0 96 c0 87 -2 99 -24 124 -42 50 -46 28 -46 -232 0 -225 1
-239 20 -258 24 -24 25 -34 5 -54 -8 -8 -15 -17 -15 -20 0 -3 89 -6 198 -6
186 0 200 1 217 20 32 35 75 19 75 -27 0 -15 -9 -27 -25 -35 -21 -10 -29 -8
-48 10 -22 21 -32 22 -211 22 -110 0 -185 -4 -182 -9 9 -14 -4 -40 -26 -52
-37 -20 -76 39 -46 69 8 8 8 15 -2 26 -13 17 -6 66 10 66 6 0 10 93 10 249 0
212 -2 250 -15 255 -18 7 -20 47 -3 64 17 17 44 15 62 -4z m1326 1 c7 -8 10
-25 6 -39 -8 -32 -42 -40 -67 -15 -17 17 -35 19 -204 19 l-185 0 0 -54 c0 -39
4 -55 15 -60 9 -3 15 -18 15 -36 0 -35 -32 -54 -62 -38 -22 11 -24 66 -3 74
11 5 15 22 15 70 l0 64 199 0 c168 0 200 2 205 15 7 19 50 19 66 0z m-1958
-22 c23 -21 23 -36 -2 -58 -12 -11 -28 -15 -43 -11 -19 4 -39 -11 -124 -97
-56 -56 -104 -112 -107 -124 -11 -37 -67 -42 -80 -6 -16 40 24 74 62 54 16 -8
34 6 120 92 62 63 102 110 102 123 0 42 39 57 72 27z m2582 1 c20 -20 20 -48
1 -64 -22 -18 -21 -177 1 -201 39 -43 -18 -102 -58 -61 -24 23 -17 58 13 67
17 6 19 16 19 96 0 49 -4 89 -9 89 -14 0 -41 30 -41 45 0 18 27 45 45 45 7 0
21 -7 29 -16z m134 4 c17 -17 15 -53 -3 -68 -12 -10 -15 -39 -15 -145 0 -106
3 -135 15 -145 24 -20 19 -59 -10 -72 -19 -8 -28 -8 -40 2 -19 16 -19 54 0 70
12 10 15 39 15 146 0 77 -4 135 -10 139 -23 14 -29 42 -14 63 17 24 44 28 62
10z m-3580 -390 l2 -308 75 0 75 0 0 70 0 70 155 0 c143 0 157 2 176 21 24 24
46 22 65 -6 27 -41 -35 -88 -66 -50 -10 12 -42 15 -166 15 l-153 0 -3 -67 -3
-68 -82 -3 c-69 -2 -83 0 -83 13 0 18 -11 20 -27 4 -12 -12 -53 4 -53 21 0 6
-16 10 -35 10 l-35 0 0 -54 0 -54 -70 -4 c-39 -2 -75 -1 -80 0 -6 2 -10 57
-10 132 0 107 -3 129 -16 134 -20 8 -15 55 9 70 12 8 22 8 35 0 23 -15 28 -62
8 -70 -13 -5 -16 -27 -16 -130 l0 -124 60 0 59 0 3 58 3 57 39 3 c21 2 46 10
54 19 9 9 25 13 41 10 l26 -6 -3 265 -3 264 -347 0 -347 0 -84 -84 c-46 -46
-80 -89 -77 -95 13 -21 -14 -52 -41 -49 -58 7 -55 70 3 76 20 3 54 28 114 87
l85 83 355 -2 355 -1 3 -307z m-638 217 c10 -13 50 -15 241 -15 l229 0 0 -138
c0 -126 2 -138 20 -150 28 -17 26 -60 -2 -71 -45 -17 -79 34 -46 67 10 10 -6
31 -73 98 -73 72 -90 85 -109 79 -16 -5 -19 -10 -11 -18 17 -17 13 -46 -9 -59
-19 -12 -20 -24 -20 -178 0 -154 1 -166 20 -178 22 -14 26 -42 8 -60 -19 -19
-56 -14 -69 9 -9 18 -7 27 10 50 19 26 21 41 21 180 0 143 -1 154 -22 176 -18
19 -20 27 -10 48 6 14 19 25 28 25 13 0 14 3 5 14 -11 13 -15 12 -32 -2 -16
-14 -19 -30 -19 -105 0 -73 3 -93 20 -114 32 -41 -4 -88 -49 -63 -25 13 -28
58 -6 66 23 9 22 190 -1 215 -19 22 -12 64 12 73 9 4 26 0 38 -7 18 -12 24
-12 43 0 26 17 63 3 63 -25 0 -10 38 -55 85 -102 l85 -85 0 118 0 117 -216 0
c-211 0 -216 -1 -234 -22 -15 -20 -21 -21 -44 -10 -17 8 -26 19 -26 35 0 43
44 63 70 32z m1774 -1 c21 -21 20 -37 -3 -58 -20 -18 -61 -15 -61 5 0 5 -65 9
-153 9 l-153 0 -67 -68 c-47 -47 -66 -73 -62 -84 4 -9 2 -26 -5 -37 -19 -36
-80 -22 -80 19 0 22 34 52 51 45 9 -3 43 24 89 70 l74 75 146 0 c134 0 146 1
158 20 15 24 45 26 66 4z m2124 4 c7 -7 12 -24 12 -38 0 -19 30 -55 125 -150
l125 -125 0 -105 0 -104 -47 -48 -47 -48 -92 0 c-87 0 -92 -1 -109 -26 -30
-47 -11 -54 149 -54 l142 0 74 75 c40 41 75 82 76 91 2 9 10 24 18 32 12 13
20 13 41 4 51 -24 19 -91 -37 -77 -19 5 -37 -9 -98 -70 l-74 -75 -140 0 c-114
0 -143 -3 -157 -16 -39 -35 -102 17 -66 53 11 12 12 21 4 43 -18 49 30 81 67
45 11 -11 38 -15 102 -15 l88 0 48 47 48 47 0 96 0 95 -125 125 c-96 96 -132
125 -151 125 -15 0 -32 9 -40 20 -26 39 31 86 64 53z m2782 -28 c16 -16 33
-20 83 -20 l63 0 172 -175 c148 -152 174 -175 195 -170 29 8 50 -14 45 -47 -2
-15 -11 -24 -26 -26 -29 -4 -54 15 -50 39 2 13 -54 76 -172 194 l-175 175 -62
0 c-35 0 -63 -4 -63 -10 0 -18 -39 -31 -60 -20 -25 13 -26 55 -2 69 24 15 29
14 52 -9z m-7449 -53 c3 -25 -3 -42 -17 -50 -11 -6 -14 -33 -14 -112 l0 -105
40 0 40 0 0 50 0 50 113 0 c103 0 113 2 125 21 15 24 50 22 66 -3 24 -38 -43
-80 -70 -44 -10 14 -29 16 -115 14 l-104 -3 -3 -47 -3 -48 -55 0 -54 0 0 109
c0 84 -3 111 -15 121 -21 18 -19 46 7 64 23 16 57 7 59 -17z m-301 -2 c16 -19
9 -45 -17 -62 -19 -13 -24 -12 -42 6 -15 15 -34 21 -66 21 l-45 0 0 -95 0 -95
-53 0 c-51 0 -54 1 -117 65 l-64 65 -145 0 c-118 0 -148 -3 -162 -16 -22 -20
-56 -11 -64 17 -14 43 53 69 75 29 10 -19 21 -20 153 -20 l143 0 64 -65 c61
-62 67 -65 112 -65 l48 0 0 95 0 95 48 0 c35 0 52 5 65 20 20 24 50 26 67 5z
m10170 -9 c0 -2 -7 -7 -16 -10 -8 -3 -12 -2 -9 4 6 10 25 14 25 6z m-3706 -32
c9 -8 16 -22 16 -29 0 -15 -27 -45 -41 -45 -5 0 -9 -68 -9 -158 0 -146 2 -160
20 -177 24 -21 26 -48 5 -65 -18 -15 -61 -6 -69 16 -7 17 10 54 24 54 6 0 10
67 10 169 0 138 -3 171 -15 181 -19 16 -19 29 2 52 20 22 37 23 57 2z m-1583
-4 c23 -13 25 -53 4 -70 -12 -10 -15 -28 -13 -69 l3 -56 103 -3 102 -3 0 -80
c0 -65 4 -86 20 -106 32 -41 -4 -88 -49 -63 -25 13 -28 52 -6 70 11 9 15 33
15 91 l0 79 -100 0 -100 0 0 63 c0 51 -3 64 -20 75 -25 15 -26 57 -2 71 21 13
20 13 43 1z m1437 -134 c2 -98 6 -132 18 -143 32 -32 -6 -90 -43 -67 -24 15
-29 62 -9 70 13 5 16 27 16 130 l0 124 -60 0 -60 0 0 -55 0 -55 -43 0 c-31 0
-47 -6 -60 -21 -13 -14 -25 -19 -41 -15 l-24 6 2 -263 1 -262 350 -3 349 -2
83 82 c64 64 83 89 83 110 0 21 6 29 25 34 15 4 32 1 40 -6 31 -26 7 -75 -34
-68 -13 2 -47 -23 -106 -79 l-86 -83 -360 0 -359 0 0 305 0 305 -75 0 -75 0 0
-65 0 -65 -159 0 c-131 0 -161 -3 -171 -15 -28 -34 -87 6 -64 43 16 26 60 28
74 3 10 -20 19 -21 160 -21 l150 0 0 70 0 70 85 0 c51 0 85 -4 85 -10 0 -6 10
-8 24 -4 18 4 30 0 43 -15 11 -13 29 -21 50 -21 l33 0 0 53 c0 30 3 57 7 61 4
4 39 5 78 4 l70 -3 3 -129z m3856 95 c-3 -3 -15 6 -27 18 l-22 24 27 -19 c14
-10 24 -21 22 -23z m-2919 19 c9 -15 251 -13 275 2 37 23 77 -24 50 -57 -19
-22 -61 -19 -67 5 -5 19 -14 20 -119 20 -103 0 -114 -2 -124 -20 -19 -35 -80
-20 -80 20 0 32 49 55 65 30z m-7104 -10 c21 -12 25 -50 7 -68 -19 -19 -46
-14 -64 13 -16 25 -21 26 -98 23 l-81 -3 -3 -107 -3 -108 -107 0 -107 0 -76
76 c-71 70 -78 75 -98 62 -38 -23 -79 23 -51 57 7 8 19 15 26 15 8 0 58 -45
110 -100 l96 -100 99 0 99 0 0 110 0 110 93 0 c65 1 98 5 111 15 24 18 22 18
47 5z m2517 -12 c17 -17 15 -57 -3 -64 -12 -5 -15 -24 -15 -85 l0 -79 100 0
100 0 0 -70 c0 -60 3 -71 21 -80 25 -14 23 -58 -3 -74 -39 -24 -79 44 -44 74
11 9 16 30 16 71 l0 58 -102 3 -103 3 -3 88 c-1 48 -7 87 -12 87 -5 0 -14 8
-19 18 -21 39 36 81 67 50z m4440 -10 c7 -7 12 -19 12 -27 0 -8 14 -30 32 -48
l32 -33 223 0 c161 0 229 3 243 12 37 23 77 -24 50 -57 -18 -21 -48 -18 -62 5
-12 19 -24 20 -233 20 l-221 0 -33 34 c-28 29 -38 34 -66 29 -27 -4 -35 -1
-44 16 -23 43 32 84 67 49z m2606 -7 c4 -5 -3 -7 -14 -4 -11 3 -28 -1 -38 -8
-15 -13 -16 -12 -3 4 14 18 46 23 55 8z m169 -28 c-24 -2 -62 -2 -85 0 -24 2
-5 4 42 4 47 0 66 -2 43 -4z m114 1 c-3 -3 -12 -4 -19 -1 -8 3 -5 6 6 6 11 1
17 -2 13 -5z m83 -59 c35 -36 62 -65 59 -65 -2 0 -34 29 -69 65 -35 36 -62 65
-59 65 2 0 34 -29 69 -65z m-756 40 c-5 -12 -33 -15 -169 -15 -121 0 -165 -3
-168 -12 -3 -8 -6 -6 -6 5 -1 15 13 17 163 17 99 0 167 4 171 10 9 15 15 12 9
-5z m-5203 -12 c10 -16 29 -18 197 -15 120 1 195 6 210 14 30 16 56 0 60 -35
4 -33 -28 -53 -58 -37 -11 6 -20 17 -20 25 0 22 -372 22 -390 0 -25 -30 -80
-12 -80 25 0 39 60 55 81 23z m-3063 -118 c51 -76 93 -129 110 -137 49 -24 33
-84 -20 -76 -20 3 -23 9 -23 48 -1 40 -10 58 -79 158 l-77 112 -102 0 -102 0
0 -75 c0 -45 5 -79 13 -87 6 -6 12 -25 12 -40 0 -21 -6 -29 -25 -34 -48 -12
-76 43 -35 68 18 11 20 24 20 100 l0 88 113 0 112 -1 83 -124z m2232 90 c10
-12 44 -15 184 -15 l172 0 44 -45 c32 -33 49 -43 65 -39 13 3 27 -2 40 -15 15
-18 16 -25 7 -46 -21 -45 -88 -25 -80 24 2 13 -13 36 -42 66 l-44 45 -166 0
c-154 0 -166 -1 -178 -20 -28 -45 -97 -7 -72 40 13 24 52 26 70 5z m6045 -14
c-6 -5 -25 10 -25 20 0 5 6 4 14 -3 8 -7 12 -15 11 -17z m-9881 -18 c8 -10 94
-100 192 -200 l178 -183 56 0 c44 0 58 4 68 20 24 39 77 15 70 -32 -4 -28 -48
-37 -68 -14 -8 11 -30 16 -69 16 l-56 0 -175 175 c-161 161 -175 173 -191 159
-39 -35 -88 18 -53 57 21 24 30 24 48 2z m4524 -5 c7 -7 12 -22 12 -34 0 -13
18 -38 45 -63 l45 -41 164 0 c136 0 166 3 176 16 30 35 98 -5 74 -43 -16 -27
-60 -29 -74 -4 -10 20 -19 21 -183 21 l-173 0 -44 45 c-34 35 -47 42 -61 35
-12 -7 -24 -4 -40 9 -21 16 -22 22 -11 45 13 28 49 35 70 14z m-4559 -152
c146 -146 155 -154 179 -143 21 10 27 8 43 -11 20 -25 16 -48 -11 -62 -19 -10
-60 12 -60 33 0 7 -71 83 -158 170 l-157 157 -55 -55 -54 -55 -143 0 -142 0
-4 -142 -3 -143 -2 148 -2 147 148 0 148 0 54 55 c30 30 57 55 60 55 3 0 74
-69 159 -154z m9643 143 c-17 -6 -22 -15 -20 -31 4 -30 47 -38 54 -11 5 16 15
18 107 15 l102 -3 47 -46 c43 -43 47 -49 50 -104 2 -33 0 -59 -4 -59 -5 0 -8
26 -8 57 0 54 -3 60 -42 100 l-42 43 -97 0 c-74 0 -100 -4 -109 -15 -15 -18
-42 -19 -58 -3 -24 24 -6 69 28 67 9 0 6 -4 -8 -10z m-972 -94 c62 -63 87 -82
96 -74 17 14 57 8 60 -9 1 -7 0 -8 -3 -2 -8 16 -53 12 -60 -7 -4 -10 2 -23 16
-35 13 -10 20 -18 15 -18 -12 0 -44 32 -44 44 0 6 -39 48 -87 93 l-88 82 -92
1 -93 0 0 -110 0 -110 -95 0 c-84 0 -95 -2 -105 -20 -22 -41 -91 -10 -74 34 9
24 43 30 63 12 13 -12 39 -16 109 -16 l92 0 0 110 0 110 103 0 102 0 85 -85z
m-1572 63 c16 -16 15 -43 -3 -58 -11 -9 -15 -35 -15 -105 0 -70 4 -96 15 -105
33 -27 7 -75 -37 -68 -18 2 -24 10 -26 36 -2 22 2 34 12 38 23 9 23 189 1 198
-18 7 -20 62 -2 69 22 9 43 7 55 -5z m-314 -40 c8 -13 8 -23 -1 -37 -10 -16 0
-29 77 -106 48 -48 92 -85 98 -81 15 9 41 -4 53 -26 8 -15 7 -24 -7 -39 -9
-10 -23 -19 -30 -19 -20 0 -46 31 -41 50 3 12 -22 44 -79 101 l-84 84 0 -123
0 -122 220 0 c122 0 220 4 220 9 0 13 30 22 51 16 23 -8 34 -42 19 -60 -16
-19 -57 -19 -67 0 -7 12 -47 15 -233 17 l-225 3 -3 137 c-2 123 -4 137 -21
143 -23 7 -32 36 -19 59 12 22 57 18 72 -6z m1254 -110 c1 -65 7 -118 12 -118
5 0 14 -9 20 -19 14 -28 -18 -66 -48 -57 -30 10 -38 44 -16 67 17 16 19 32 16
124 l-3 105 -39 0 -39 0 -3 -47 -3 -48 -110 -3 c-82 -2 -114 -7 -126 -18 -21
-19 -48 -15 -63 9 -23 36 36 76 64 42 10 -12 35 -15 121 -15 l109 0 0 51 0 50
53 -3 52 -3 3 -117z m1264 6 c-3 -89 -2 -97 18 -111 25 -17 23 -51 -2 -67 -22
-14 -52 2 -55 30 -2 14 0 13 7 -4 13 -31 54 -27 58 6 3 17 -2 25 -17 29 -20 5
-21 12 -21 109 0 57 3 104 8 104 4 0 6 -43 4 -96z m566 84 c16 -16 15 -43 -3
-58 -11 -9 -16 -35 -17 -89 l-2 -76 -5 80 c-5 71 -4 81 12 87 26 11 18 52 -11
56 -16 2 -25 -3 -31 -20 -6 -14 -10 -17 -10 -7 -1 19 18 39 39 39 9 0 21 -5
28 -12z m-9212 -13 c5 -13 40 -15 228 -15 l222 0 33 -34 c22 -23 39 -32 52
-29 44 12 69 -56 29 -77 -29 -16 -60 4 -60 37 0 17 -12 40 -32 60 l-32 33
-213 0 c-202 0 -213 -1 -223 -20 -6 -12 -21 -20 -35 -20 -31 0 -50 32 -35 60
13 24 58 27 66 5z m10091 -30 c-7 -13 -14 -20 -15 -14 -2 5 2 16 8 24 18 21
20 18 7 -10z m-2114 -50 l67 -65 144 0 c115 0 146 3 156 15 30 36 83 -3 60
-45 -13 -25 -43 -26 -61 -2 -11 14 -11 15 1 5 32 -29 75 1 49 33 -15 18 -38
18 -45 -1 -5 -12 -32 -15 -158 -15 l-152 0 -64 65 c-61 62 -67 65 -112 65
l-48 0 0 -95 0 -95 -45 0 c-34 0 -47 -5 -55 -20 -13 -24 -55 -27 -68 -4 -13
23 -4 52 18 59 20 6 50 -3 50 -16 0 -5 20 -9 45 -9 l45 0 0 95 0 95 53 0 c52
0 55 -2 120 -65z m1487 -10 c8 0 20 11 27 25 8 16 13 19 13 9 0 -9 -9 -24 -20
-34 -19 -17 -21 -17 -40 0 -11 10 -20 25 -20 34 0 10 5 7 13 -9 7 -14 19 -25
27 -25z m-7186 -14 c31 -35 0 -80 -45 -66 -11 4 -19 11 -19 16 0 5 -31 9 -70
9 l-70 0 0 -55 0 -55 -225 0 c-132 0 -225 -4 -225 -9 0 -5 -9 -13 -21 -16 -22
-7 -59 18 -59 40 0 39 70 55 84 20 4 -13 41 -15 221 -15 l215 0 0 49 c0 56 2
57 80 56 45 0 58 4 73 23 23 27 39 28 61 3z m5887 -14 c-10 -9 -11 -8 -5 6 3
10 9 15 12 12 3 -3 0 -11 -7 -18z m-8039 -7 c12 -18 24 -20 123 -20 100 0 111
2 123 21 15 24 50 22 66 -4 23 -36 -36 -76 -64 -42 -18 22 -232 22 -250 -1
-20 -23 -64 -14 -68 14 -7 47 46 71 70 32z m9338 -15 c0 -13 -7 -26 -16 -29
-14 -6 -15 -4 -4 10 11 12 11 20 2 34 -10 16 -9 18 3 14 8 -4 15 -16 15 -29z
m-70 -15 c6 -11 8 -20 6 -20 -3 0 -10 9 -16 20 -6 11 -8 20 -6 20 3 0 10 -9
16 -20z m-5410 -20 c18 -18 36 -20 207 -22 l188 -3 3 -105 c1 -57 0 -101 -3
-98 -3 3 -6 47 -7 97 l0 91 -188 0 c-155 0 -190 -3 -200 -15 -25 -30 -70 -11
-70 30 0 44 37 58 70 25z m6311 -7 c13 -16 12 -17 -3 -4 -10 7 -18 15 -18 17
0 8 8 3 21 -13z m-874 -156 c-2 -23 -3 -2 -3 48 0 50 1 68 3 42 2 -26 2 -67 0
-90z m136 106 c-18 -2 -48 -2 -65 0 -18 2 -4 4 32 4 36 0 50 -2 33 -4z"/>
<path d="M3867 7044 c-4 -4 -7 -16 -7 -26 0 -13 7 -18 26 -18 21 0 25 4 22 22
-3 23 -27 35 -41 22z"/>
<path d="M4142 6981 c-20 -12 -10 -46 13 -46 14 0 20 7 20 24 0 27 -13 35 -33
22z"/>
<path d="M4047 6974 c-10 -10 -9 -42 2 -48 18 -11 42 6 39 28 -3 21 -28 33
-41 20z"/>
<path d="M4373 6733 c-15 -5 -17 -39 -4 -47 17 -11 42 6 39 27 -3 22 -15 29
-35 20z"/>
<path d="M4047 6704 c-4 -4 -7 -16 -7 -26 0 -14 6 -19 23 -16 14 2 22 10 22
23 0 20 -25 32 -38 19z"/>
<path d="M5634 7026 c-9 -24 4 -48 23 -44 12 2 18 12 18 28 0 29 -32 41 -41
16z"/>
<path d="M5624 6935 c-8 -19 3 -35 26 -35 19 0 30 17 23 38 -6 17 -42 15 -49
-3z"/>
<path d="M5117 6855 c-20 -19 -12 -45 14 -45 26 0 36 28 17 46 -13 14 -17 14
-31 -1z"/>
<path d="M5587 6347 c-8 -21 8 -39 29 -35 27 5 25 42 -2 46 -12 2 -24 -3 -27
-11z"/>
<path d="M11094 6655 c-9 -23 3 -45 26 -45 25 0 37 25 20 45 -16 19 -39 19
-46 0z"/>
<path d="M8861 6981 c-13 -23 10 -47 34 -37 20 7 19 42 -1 50 -22 8 -22 8 -33
-13z"/>
<path d="M8204 6875 c-8 -21 2 -45 19 -45 8 0 20 7 27 15 10 12 10 18 0 30 -7
8 -19 15 -27 15 -7 0 -16 -7 -19 -15z"/>
<path d="M3083 6983 c-18 -7 -16 -42 2 -49 24 -10 47 14 34 37 -10 19 -15 21
-36 12z"/>
<path d="M3433 6804 c-3 -8 2 -23 11 -32 14 -15 18 -15 31 -1 9 9 13 23 9 32
-8 21 -43 22 -51 1z"/>
<path d="M1803 6954 c-3 -8 2 -23 11 -32 15 -15 17 -15 32 0 21 21 11 48 -16
48 -11 0 -23 -7 -27 -16z"/>
<path d="M1191 6580 c-19 -11 -9 -45 14 -45 13 0 21 8 23 21 3 23 -17 37 -37
24z"/>
<path d="M2777 6964 c-12 -12 -8 -42 6 -47 21 -8 39 8 35 29 -3 19 -29 30 -41
18z"/>
<path d="M2087 6904 c-12 -12 -8 -42 6 -47 21 -8 39 8 35 29 -3 19 -29 30 -41
18z"/>
<path d="M2954 6875 c-8 -19 3 -35 26 -35 19 0 30 17 23 38 -6 17 -42 15 -49
-3z"/>
<path d="M2317 6843 c-13 -12 -7 -44 8 -49 24 -10 47 14 34 37 -10 19 -30 25
-42 12z"/>
<path d="M9244 6916 c-9 -24 4 -48 23 -44 12 2 18 12 18 28 0 29 -32 41 -41
16z"/>
<path d="M9312 6701 c-21 -13 -10 -46 16 -49 27 -4 40 22 22 43 -14 17 -20 18
-38 6z"/>
<path d="M8984 6655 c-4 -9 -2 -21 4 -27 16 -16 47 -5 47 17 0 26 -42 34 -51
10z"/>
<path d="M9240 6486 c0 -13 6 -26 13 -29 22 -7 37 4 37 29 0 19 -5 24 -25 24
-20 0 -25 -5 -25 -24z"/>
<path d="M9221 6416 c-17 -20 -2 -48 23 -44 24 3 34 37 14 49 -18 12 -24 11
-37 -5z"/>
<path d="M9304 6415 c-8 -21 2 -45 19 -45 8 0 20 7 27 15 10 12 10 18 0 30 -7
8 -19 15 -27 15 -7 0 -16 -7 -19 -15z"/>
<path d="M9490 6355 c-17 -20 -5 -45 20 -45 11 0 23 7 26 15 6 15 -11 45 -26
45 -4 0 -13 -7 -20 -15z"/>
<path d="M7681 6906 c-15 -18 -3 -46 20 -46 25 0 35 26 19 45 -15 19 -24 19
-39 1z"/>
<path d="M7887 6517 c-8 -21 8 -39 29 -35 27 5 25 42 -2 46 -12 2 -24 -3 -27
-11z"/>
<path d="M8867 6807 c-8 -21 8 -39 29 -35 27 5 25 42 -2 46 -12 2 -24 -3 -27
-11z"/>
<path d="M8310 6715 c-16 -19 -6 -45 19 -45 23 0 35 28 20 46 -15 18 -24 18
-39 -1z"/>
<path d="M9123 6624 c-3 -8 2 -23 11 -32 15 -15 17 -15 32 0 21 21 11 48 -16
48 -11 0 -23 -7 -27 -16z"/>
<path d="M9734 6435 c-8 -21 2 -45 19 -45 8 0 20 7 27 15 10 12 10 18 0 30 -7
8 -19 15 -27 15 -7 0 -16 -7 -19 -15z"/>
<path d="M4104 6886 c-9 -24 4 -48 23 -44 12 2 18 12 18 28 0 29 -32 41 -41
16z"/>
<path d="M4092 6458 c2 -15 10 -23 23 -23 13 0 21 8 23 23 3 18 -1 22 -23 22
-22 0 -26 -4 -23 -22z"/>
<path d="M10044 6885 c-4 -9 0 -23 8 -31 20 -20 50 -7 46 20 -4 26 -45 35 -54
11z"/>
<path d="M10354 6885 c-4 -9 0 -23 8 -31 20 -20 50 -7 46 20 -4 26 -45 35 -54
11z"/>
<path d="M5454 6855 c-8 -19 3 -35 26 -35 19 0 34 25 24 41 -8 14 -44 10 -50
-6z"/>
<path d="M5670 6484 c-11 -12 -10 -18 3 -32 16 -15 18 -15 34 0 13 14 14 20 3
32 -7 9 -16 16 -20 16 -4 0 -13 -7 -20 -16z"/>
<path d="M9910 6865 c-18 -21 -5 -47 22 -43 26 3 37 36 16 49 -18 12 -24 11
-38 -6z"/>
<path d="M9363 6854 c-3 -8 2 -23 11 -32 15 -15 17 -15 32 0 21 21 11 48 -16
48 -11 0 -23 -7 -27 -16z"/>
<path d="M9777 6783 c-13 -12 -7 -41 10 -47 21 -8 48 17 40 38 -6 16 -38 22
-50 9z"/>
<path d="M7354 6815 c-8 -20 4 -35 26 -35 23 0 32 13 24 34 -8 20 -43 21 -50
1z"/>
<path d="M6895 6793 c-15 -14 -15 -18 -1 -31 18 -19 46 -9 46 17 0 26 -26 34
-45 14z"/>
<path d="M7363 6743 c-18 -7 -16 -42 3 -50 8 -3 23 1 31 10 13 13 14 19 3 31
-13 17 -17 18 -37 9z"/>
<path d="M6846 6424 c-4 -10 -2 -22 3 -27 15 -15 46 -3 46 18 0 26 -40 33 -49
9z"/>
<path d="M7272 6178 c2 -15 10 -23 23 -23 30 0 27 39 -3 43 -20 3 -23 0 -20
-20z"/>
<path d="M7354 6155 c-8 -19 3 -35 26 -35 19 0 30 17 23 38 -6 17 -42 15 -49
-3z"/>
<path d="M6077 6784 c-12 -12 -8 -42 6 -47 21 -8 39 8 35 29 -3 19 -29 30 -41
18z"/>
<path d="M6584 6656 c-8 -21 3 -36 27 -36 15 0 20 6 17 22 -4 27 -35 37 -44
14z"/>
<path d="M10476 6764 c-7 -19 10 -44 29 -44 19 0 36 25 29 44 -3 9 -16 16 -29
16 -13 0 -26 -7 -29 -16z"/>
<path d="M2254 6745 c-4 -9 -2 -21 4 -27 16 -16 47 -5 47 17 0 26 -42 34 -51
10z"/>
<path d="M2817 6377 c-22 -16 -13 -47 14 -47 25 0 36 28 17 46 -11 12 -17 12
-31 1z"/>
<path d="M6764 6736 c-9 -24 4 -48 23 -44 12 2 18 12 18 28 0 29 -32 41 -41
16z"/>
<path d="M7277 6624 c-10 -10 -9 -42 2 -48 18 -11 42 6 39 28 -3 21 -28 33
-41 20z"/>
<path d="M11024 6555 c-4 -9 0 -23 9 -32 21 -21 49 -9 45 19 -4 28 -45 38 -54
13z"/>
<path d="M9904 6565 c-4 -9 0 -23 8 -31 20 -20 50 -7 46 20 -4 26 -45 35 -54
11z"/>
<path d="M10264 6415 c-9 -23 3 -45 26 -45 25 0 37 25 20 45 -16 19 -39 19
-46 0z"/>
<path d="M2860 6624 c-11 -12 -10 -18 3 -32 16 -15 18 -15 34 0 13 14 14 20 3
32 -7 9 -16 16 -20 16 -4 0 -13 -7 -20 -16z"/>
<path d="M3457 6534 c-12 -12 -8 -42 6 -47 21 -8 39 8 35 29 -3 19 -29 30 -41
18z"/>
<path d="M5977 6597 c-8 -21 8 -39 29 -35 27 5 25 42 -2 46 -12 2 -24 -3 -27
-11z"/>
<path d="M6447 6594 c-12 -12 -8 -42 6 -47 21 -8 39 8 35 29 -3 19 -29 30 -41
18z"/>
<path d="M8310 6585 c-16 -19 -6 -45 19 -45 23 0 35 28 20 46 -15 18 -24 18
-39 -1z"/>
<path d="M8224 6535 c-8 -21 2 -45 19 -45 8 0 20 7 27 15 10 12 10 18 0 30 -7
8 -19 15 -27 15 -7 0 -16 -7 -19 -15z"/>
<path d="M7714 6345 c-8 -19 3 -35 26 -35 19 0 30 17 23 38 -6 17 -42 15 -49
-3z"/>
<path d="M8694 6145 c-8 -20 4 -35 26 -35 23 0 32 13 24 34 -8 20 -43 21 -50
1z"/>
<path d="M10565 6434 c-8 -9 -15 -19 -15 -23 0 -9 22 -31 31 -31 15 0 38 31
33 45 -9 21 -32 26 -49 9z"/>
<path d="M5267 6537 c-8 -21 8 -39 29 -35 27 5 25 42 -2 46 -12 2 -24 -3 -27
-11z"/>
<path d="M5272 6168 c2 -15 10 -23 23 -23 30 0 27 39 -3 43 -20 3 -23 0 -20
-20z"/>
<path d="M10394 6516 c-10 -26 4 -48 28 -44 17 2 23 10 23 28 0 18 -6 26 -23
28 -13 2 -25 -3 -28 -12z"/>
<path d="M2987 6504 c-4 -4 -7 -16 -7 -26 0 -14 6 -19 23 -16 14 2 22 10 22
23 0 20 -25 32 -38 19z"/>
<path d="M3294 6495 c-8 -19 3 -35 26 -35 19 0 30 17 23 38 -6 17 -42 15 -49
-3z"/>
<path d="M5152 6488 c2 -15 10 -23 23 -23 13 0 21 8 23 23 3 18 -1 22 -23 22
-22 0 -26 -4 -23 -22z"/>
<path d="M4491 6400 c-19 -11 -9 -45 14 -45 13 0 21 8 23 21 3 23 -17 37 -37
24z"/>
<path d="M4850 6345 c0 -22 4 -26 23 -23 14 2 22 10 22 23 0 13 -8 21 -22 23
-19 3 -23 -1 -23 -23z"/>
<path d="M4880 6075 c-15 -18 -5 -35 20 -35 10 0 22 5 25 10 7 11 -12 40 -25
40 -4 0 -13 -7 -20 -15z"/>
<path d="M5404 6445 c-4 -9 -2 -21 4 -27 15 -15 44 -1 40 19 -4 23 -36 29 -44
8z"/>
<path d="M5402 6168 c2 -15 10 -23 23 -23 13 0 21 8 23 23 3 18 -1 22 -23 22
-22 0 -26 -4 -23 -22z"/>
<path d="M8281 6440 c-19 -11 -9 -45 14 -45 13 0 21 8 23 21 3 23 -17 37 -37
24z"/>
<path d="M7990 6185 c-7 -8 -10 -22 -6 -30 7 -20 42 -19 50 1 8 22 8 22 -13
33 -14 8 -22 7 -31 -4z"/>
<path d="M11474 6166 c-10 -26 4 -48 28 -44 17 2 23 10 23 28 0 18 -6 26 -23
28 -13 2 -25 -3 -28 -12z"/>
<path d="M10954 6116 c-10 -26 4 -48 28 -44 17 2 23 10 23 28 0 18 -6 26 -23
28 -13 2 -25 -3 -28 -12z"/>
<path d="M9790 6355 c-17 -20 -5 -45 20 -45 11 0 23 7 26 15 6 15 -11 45 -26
45 -4 0 -13 -7 -20 -15z"/>
<path d="M9951 6302 c-8 -15 -7 -23 4 -32 21 -18 47 -4 43 22 -4 29 -34 35
-47 10z"/>
<path d="M11027 6346 c-10 -26 4 -47 27 -44 15 2 21 10 21 28 0 29 -38 41 -48
16z"/>
<path d="M10794 5985 c-4 -9 0 -23 8 -31 20 -20 50 -7 46 20 -4 26 -45 35 -54
11z"/>
<path d="M6457 6317 c-8 -21 8 -39 29 -35 27 5 25 42 -2 46 -12 2 -24 -3 -27
-11z"/>
<path d="M6037 6164 c-4 -4 -7 -16 -7 -26 0 -14 6 -19 23 -16 14 2 22 10 22
23 0 20 -25 32 -38 19z"/>
<path d="M10164 6205 c-8 -21 2 -45 19 -45 20 0 40 27 33 45 -7 19 -45 20 -52
0z"/>
<path d="M10712 6168 c-7 -7 -12 -18 -12 -25 0 -15 30 -32 48 -26 17 7 15 50
-4 57 -20 8 -18 8 -32 -6z"/>
<path d="M10826 6114 c-9 -22 17 -49 39 -40 10 3 15 15 13 28 -4 29 -42 37
-52 12z"/>
<path d="M9774 6025 c-8 -21 2 -45 19 -45 21 0 38 25 31 44 -8 20 -43 21 -50
1z"/>
<path d="M6804 6245 c-8 -19 3 -35 26 -35 19 0 34 25 24 41 -8 14 -44 10 -50
-6z"/>
<path d="M7570 5895 c-16 -19 -5 -47 17 -43 22 4 29 43 9 51 -8 3 -20 -1 -26
-8z"/>
<path d="M7564 6246 c-8 -21 3 -36 27 -36 15 0 20 6 17 22 -4 27 -35 37 -44
14z"/>
<path d="M8280 6224 c-11 -12 -10 -18 3 -31 8 -9 23 -13 31 -10 21 8 21 43 0
51 -21 8 -20 8 -34 -10z"/>
<path d="M5766 6214 c-8 -21 1 -34 24 -34 10 0 21 4 24 9 10 16 -5 41 -24 41
-10 0 -21 -7 -24 -16z"/>
<path d="M5194 6096 c-8 -21 3 -36 27 -36 15 0 20 6 17 22 -4 27 -35 37 -44
14z"/>
<path d="M8600 6125 c-18 -21 -4 -47 22 -43 29 4 35 34 10 47 -15 8 -23 7 -32
-4z"/>
<path d="M9374 6075 c-4 -9 -2 -21 4 -27 16 -16 47 -5 47 17 0 26 -42 34 -51
10z"/>
<path d="M11394 5905 c-4 -9 0 -23 8 -31 20 -20 50 -7 46 20 -4 26 -45 35 -54
11z"/>
<path d="M10652 6001 c-21 -13 -10 -46 16 -49 27 -4 40 22 22 43 -14 17 -20
18 -38 6z"/>
<path d="M10261 5896 c-17 -20 -2 -48 23 -44 24 3 34 37 14 49 -18 12 -24 11
-37 -5z"/>
<path d="M4594 5825 c-8 -19 3 -35 26 -35 19 0 30 17 23 38 -6 17 -42 15 -49
-3z"/>
<path d="M4894 5825 c-4 -9 -2 -21 4 -27 15 -15 44 -1 40 19 -4 23 -36 29 -44
8z"/>
<path d="M10064 5715 c-4 -9 -2 -21 4 -27 16 -16 47 -5 47 17 0 26 -42 34 -51
10z"/>
<path d="M10255 5627 c-10 -8 -14 -19 -9 -30 9 -25 48 -18 52 9 4 26 -20 37
-43 21z"/>
<path d="M11482 5263 c-13 -26 -4 -43 23 -43 13 0 25 6 28 13 6 17 -11 47 -28
47 -8 0 -18 -8 -23 -17z"/>
<path d="M10684 5255 c-8 -21 2 -45 19 -45 8 0 20 7 27 15 10 12 10 18 0 30
-7 8 -19 15 -27 15 -7 0 -16 -7 -19 -15z"/>
<path d="M11094 5115 c-8 -21 2 -45 19 -45 21 0 38 25 31 44 -8 20 -43 21 -50
1z"/>
<path d="M11702 5118 c-7 -7 -8 -17 -1 -30 12 -22 32 -23 49 -3 23 28 -21 60
-48 33z"/>
<path d="M2233 3927 c12 -13 24 -22 26 -20 6 4 -30 43 -40 43 -5 0 2 -10 14
-23z"/>
<path d="M2219 3733 c-12 -16 -12 -17 1 -7 8 6 22 14 30 17 13 5 12 6 -1 6 -9
1 -23 -7 -30 -16z"/>
<path d="M2240 3710 c0 -5 5 -10 10 -10 6 0 10 5 10 10 0 6 -4 10 -10 10 -5 0
-10 -4 -10 -10z"/>
<path d="M2258 3643 c6 -2 18 -2 25 0 6 3 1 5 -13 5 -14 0 -19 -2 -12 -5z"/>
<path d="M2543 3095 c0 -8 4 -12 9 -9 5 3 6 10 3 15 -9 13 -12 11 -12 -6z"/>
<path d="M3912 3673 c-23 -93 -42 -171 -42 -174 0 -7 170 -3 177 5 2 2 -12 69
-33 148 -20 78 -39 153 -41 166 -3 12 -8 22 -12 22 -3 0 -25 -75 -49 -167z"/>
<path d="M4550 3789 l0 -171 108 4 c164 5 220 46 222 160 1 125 -72 178 -247
178 l-83 0 0 -171z m261 88 c-10 -9 -11 -8 -5 6 3 10 9 15 12 12 3 -3 0 -11
-7 -18z m49 -69 c0 -33 -17 -57 -28 -40 -5 7 -13 12 -18 11 -23 -4 -45 2 -39
11 3 5 22 8 41 5 28 -3 35 -1 31 9 -5 12 0 26 10 26 2 0 3 -10 3 -22z m-136
-62 c-4 -10 -17 -16 -38 -15 l-31 1 33 10 c17 6 32 15 32 21 0 6 2 8 5 5 3 -3
3 -13 -1 -22z m76 14 c0 -5 -7 -10 -15 -10 -8 0 -15 5 -15 10 0 6 7 10 15 10
8 0 15 -4 15 -10z m40 -20 c10 0 21 8 23 18 4 13 5 14 6 1 0 -8 -6 -24 -14
-35 -8 -11 -15 -14 -15 -6 0 6 -7 12 -15 12 -9 0 -15 9 -14 23 1 16 2 18 6 5
2 -10 13 -18 23 -18z m-60 -54 c0 -2 -7 -7 -16 -10 -8 -3 -12 -2 -9 4 6 10 25
14 25 6z m-103 -12 c-3 -3 -12 -4 -19 -1 -8 3 -5 6 6 6 11 1 17 -2 13 -5z
m125 -1 c-6 -2 -10 -9 -7 -14 4 -5 -1 -6 -10 -2 -13 5 -14 7 -3 14 7 5 18 8
23 8 6 0 4 -3 -3 -6z m-24 -28 c4 -5 -1 -5 -12 -1 -10 3 -24 2 -31 -4 -8 -7
-12 -6 -12 4 0 15 42 15 55 1z"/>
<path d="M5030 3769 c0 -5 5 -7 10 -4 6 3 10 8 10 11 0 2 -4 4 -10 4 -5 0 -10
-5 -10 -11z"/>
<path d="M4884 3535 c-18 -14 -18 -14 4 -8 12 3 22 9 22 14 0 12 -3 11 -26 -6z"/>
<path d="M5180 3540 c-17 -5 -19 -8 -7 -9 10 -1 17 -9 17 -23 l0 -21 23 21
c13 12 30 22 38 22 12 0 12 2 -1 10 -17 11 -35 11 -70 0z"/>
<path d="M5037 3519 c7 -7 24 -8 54 -1 l44 10 -54 1 c-40 1 -52 -2 -44 -10z"/>
<path d="M4854 3509 c13 -8 15 -13 6 -19 -9 -5 -9 -9 -1 -14 6 -4 11 -2 11 3
0 6 20 11 45 11 57 0 59 -18 3 -22 -39 -3 -43 -5 -40 -28 1 -13 7 -29 12 -34
6 -6 6 2 1 21 l-9 31 134 -3 c136 -3 161 5 79 26 -49 12 -61 11 -57 -8 2 -9
-10 -13 -40 -12 -39 1 -40 2 -13 8 l30 7 -34 12 c-19 7 -51 12 -72 12 -21 0
-41 5 -44 10 -3 6 -12 10 -18 10 -7 0 -4 -5 7 -11z"/>
<path d="M5232 3461 c4 -13 18 -16 19 -4 0 4 -5 9 -11 12 -7 2 -11 -2 -8 -8z"/>
<path d="M4900 3435 c0 -8 4 -15 8 -15 5 0 9 7 9 15 0 8 -4 15 -9 15 -4 0 -8
-7 -8 -15z"/>
<path d="M4930 3434 c0 -8 5 -12 10 -9 6 3 10 10 10 16 0 5 -4 9 -10 9 -5 0
-10 -7 -10 -16z"/>
<path d="M5103 3443 c12 -3 17 -15 17 -39 0 -31 3 -35 23 -32 36 5 35 44 -2
62 -16 9 -36 15 -43 15 -7 -1 -5 -3 5 -6z"/>
<path d="M5327 3433 c-13 -12 -7 -21 17 -25 14 -3 31 -1 38 4 10 7 8 8 -4 4
-12 -3 -18 0 -18 9 0 15 -21 20 -33 8z"/>
<path d="M5015 3220 c-3 -5 -1 -10 4 -10 6 0 11 5 11 10 0 6 -2 10 -4 10 -3 0
-8 -4 -11 -10z"/>
<path d="M7659 4047 c6 -8 7 -18 3 -23 -4 -5 -3 -6 2 -2 5 4 16 2 25 -4 9 -7
5 0 -8 15 -25 27 -43 39 -22 14z"/>
<path d="M7573 3975 c0 -8 4 -12 9 -9 5 3 6 10 3 15 -9 13 -12 11 -12 -6z"/>
<path d="M7561 3934 c0 -11 3 -14 6 -6 3 7 2 16 -1 19 -3 4 -6 -2 -5 -13z"/>
<path d="M7535 3260 c-3 -5 -1 -10 4 -10 6 0 11 5 11 10 0 6 -2 10 -4 10 -3 0
-8 -4 -11 -10z"/>
<path d="M7870 3229 c0 -5 5 -7 10 -4 6 3 10 8 10 11 0 2 -4 4 -10 4 -5 0 -10
-5 -10 -11z"/>
<path d="M7523 3190 c0 -25 2 -35 4 -22 2 12 2 32 0 45 -2 12 -4 2 -4 -23z"/>
<path d="M7552 3200 c0 -19 2 -27 5 -17 2 9 2 25 0 35 -3 9 -5 1 -5 -18z"/>
<path d="M7708 3143 c12 -2 30 -2 40 0 9 3 -1 5 -23 4 -22 0 -30 -2 -17 -4z"/>
<path d="M7620 3136 c0 -2 7 -7 16 -10 8 -3 12 -2 9 4 -6 10 -25 14 -25 6z"/>
<path d="M7620 3101 c0 -6 5 -13 10 -16 6 -3 10 1 10 9 0 9 -4 16 -10 16 -5 0
-10 -4 -10 -9z"/>
<path d="M7661 3094 c0 -11 3 -14 6 -6 3 7 2 16 -1 19 -3 4 -6 -2 -5 -13z"/>
<path d="M7760 4058 c-12 -8 -11 -9 4 -4 15 5 17 2 13 -13 -2 -11 1 -22 8 -24
8 -4 10 3 7 19 -5 30 -14 36 -32 22z"/>
<path d="M7810 4046 c0 -9 5 -16 10 -16 6 0 10 4 10 9 0 6 -4 13 -10 16 -5 3
-10 -1 -10 -9z"/>
<path d="M7830 4018 c-12 -10 -17 -18 -11 -18 6 0 8 -6 5 -14 -3 -8 -1 -17 4
-20 5 -3 8 6 7 19 -3 24 24 43 44 30 5 -3 12 -1 15 4 11 18 -41 17 -64 -1z"/>
<path d="M7795 3980 c-3 -5 -1 -10 4 -10 6 0 11 5 11 10 0 6 -2 10 -4 10 -3 0
-8 -4 -11 -10z"/>
<path d="M8250 3930 c0 -5 5 -10 10 -10 6 0 10 5 10 10 0 6 -4 10 -10 10 -5 0
-10 -4 -10 -10z"/>
<path d="M8210 3880 c0 -5 5 -10 10 -10 6 0 10 5 10 10 0 6 -4 10 -10 10 -5 0
-10 -4 -10 -10z"/>
<path d="M8310 3815 c0 -8 5 -15 10 -15 6 0 10 7 10 15 0 8 -4 15 -10 15 -5 0
-10 -7 -10 -15z"/>
<path d="M9067 4054 c-8 -8 1 -24 14 -24 5 0 9 7 9 15 0 15 -12 20 -23 9z"/>
<path d="M9040 3935 c0 -9 5 -15 11 -13 6 2 11 8 11 13 0 5 -5 11 -11 13 -6 2
-11 -4 -11 -13z"/>
<path d="M8250 3710 c0 -5 5 -10 10 -10 6 0 10 5 10 10 0 6 -4 10 -10 10 -5 0
-10 -4 -10 -10z"/>
<path d="M8580 3710 c0 -5 5 -10 10 -10 6 0 10 5 10 10 0 6 -4 10 -10 10 -5 0
-10 -4 -10 -10z"/>
<path d="M7926 3541 c-4 -5 -2 -12 3 -15 5 -4 12 -2 15 3 4 5 2 12 -3 15 -5 4
-12 2 -15 -3z"/>
<path d="M8980 3630 c0 -5 5 -10 10 -10 6 0 10 5 10 10 0 6 -4 10 -10 10 -5 0
-10 -4 -10 -10z"/>
<path d="M9070 3595 c0 -9 5 -15 11 -13 6 2 11 8 11 13 0 5 -5 11 -11 13 -6 2
-11 -4 -11 -13z"/>
<path d="M6029 3413 l-24 -28 28 24 c15 14 27 26 27 28 0 8 -8 1 -31 -24z"/>
<path d="M5969 3358 c-8 -7 -21 -22 -29 -33 -8 -11 0 -7 18 9 18 17 32 31 32
33 0 6 -6 3 -21 -9z"/>
<path d="M5869 3258 c-12 -23 -12 -23 10 -4 23 21 26 26 11 26 -5 0 -15 -10
-21 -22z"/>
<path d="M8490 3315 c0 -8 5 -15 10 -15 6 0 10 7 10 15 0 8 -4 15 -10 15 -5 0
-10 -7 -10 -15z"/>
<path d="M8732 3371 c4 -13 18 -16 19 -4 0 4 -5 9 -11 12 -7 2 -11 -2 -8 -8z"/>
<path d="M2157 3363 c-3 -3 4 -14 16 -24 19 -16 20 -20 9 -39 -7 -12 -11 -24
-8 -27 3 -3 10 6 17 20 10 22 8 30 -8 51 -11 14 -23 23 -26 19z"/>
<path d="M2242 3330 c0 -14 2 -19 5 -12 2 6 2 18 0 25 -3 6 -5 1 -5 -13z"/>
<path d="M2153 3315 c0 -8 4 -12 9 -9 5 3 6 10 3 15 -9 13 -12 11 -12 -6z"/>
<path d="M2206 3284 c-8 -20 -8 -24 2 -24 4 0 8 9 9 20 2 24 -3 26 -11 4z"/>
<path d="M2274 3210 c4 -55 16 -64 16 -12 0 22 -4 43 -9 47 -6 3 -9 -11 -7
-35z"/>
<path d="M2255 3150 c3 -5 8 -10 11 -10 2 0 4 5 4 10 0 6 -5 10 -11 10 -5 0
-7 -4 -4 -10z"/>
<path d="M8712 3289 c2 -6 8 -10 13 -10 5 0 11 4 13 10 2 6 -4 11 -13 11 -9 0
-15 -5 -13 -11z"/>
<path d="M3975 3150 c27 -27 51 -50 54 -50 3 0 -17 23 -44 50 -27 28 -51 50
-54 50 -3 0 17 -22 44 -50z"/>
<path d="M9357 3154 c-8 -8 1 -24 14 -24 5 0 9 7 9 15 0 15 -12 20 -23 9z"/>
<path d="M9387 3104 c-8 -8 1 -24 14 -24 5 0 9 7 9 15 0 15 -12 20 -23 9z"/>
<path d="M5709 3098 c-12 -23 -12 -23 10 -4 23 21 26 26 11 26 -5 0 -15 -10
-21 -22z"/>
<path d="M7805 3111 c-3 -5 -2 -12 3 -15 5 -3 9 1 9 9 0 17 -3 19 -12 6z"/>
<path d="M9060 3105 c0 -9 5 -15 11 -13 6 2 11 8 11 13 0 5 -5 11 -11 13 -6 2
-11 -4 -11 -13z"/>
<path d="M5616 3004 c-5 -14 -4 -15 9 -4 17 14 19 20 6 20 -5 0 -12 -7 -15
-16z"/>
<path d="M5070 2611 c0 -5 5 -13 10 -16 6 -3 10 -2 10 4 0 5 -4 13 -10 16 -5
3 -10 2 -10 -4z"/>
<path d="M244 2056 c-9 -24 4 -48 23 -44 24 4 24 52 0 56 -9 2 -20 -4 -23 -12z"/>
<path d="M850 2055 c-11 -13 -11 -19 3 -32 21 -21 49 -9 45 19 -4 28 -30 35
-48 13z"/>
<path d="M1267 1923 c-11 -10 -8 -41 4 -49 16 -9 43 21 36 40 -7 16 -28 21
-40 9z"/>
<path d="M462 1898 c3 -25 36 -37 48 -17 13 20 0 39 -27 39 -20 0 -24 -4 -21
-22z"/>
<path d="M1694 1545 c-8 -19 3 -35 26 -35 19 0 30 17 23 38 -6 17 -42 15 -49
-3z"/>
<path d="M1876 1451 c-11 -18 6 -42 28 -39 29 4 29 42 -1 46 -11 2 -24 -1 -27
-7z"/>
<path d="M467 1434 c-13 -13 -7 -42 10 -48 21 -8 36 6 31 30 -3 19 -29 30 -41
18z"/>
<path d="M551 1266 c-17 -20 -2 -48 23 -44 24 3 34 37 14 49 -18 12 -24 11
-37 -5z"/>
<path d="M757 1103 c-12 -12 -7 -41 8 -47 19 -7 46 20 39 39 -6 15 -35 20 -47
8z"/>
<path d="M2582 1101 c-19 -11 -11 -45 11 -49 9 -2 20 4 23 13 9 21 -16 47 -34
36z"/>
<path d="M3347 1047 c-8 -21 8 -39 29 -35 27 5 25 42 -2 46 -12 2 -24 -3 -27
-11z"/>
<path d="M1684 1275 c-4 -9 -2 -21 4 -27 16 -16 47 -5 47 17 0 26 -42 34 -51
10z"/>
<path d="M1297 1177 c-8 -21 8 -39 29 -35 27 5 25 42 -2 46 -12 2 -24 -3 -27
-11z"/>
<path d="M2170 1144 c-11 -12 -10 -18 3 -32 16 -15 18 -15 33 0 19 18 12 48
-9 48 -8 0 -20 -7 -27 -16z"/>
<path d="M1117 1063 c-13 -12 -7 -41 10 -47 9 -4 23 0 31 8 13 12 13 18 2 30
-13 17 -32 21 -43 9z"/>
<path d="M1240 1015 c-18 -21 -4 -47 22 -43 29 4 35 34 10 47 -15 8 -23 7 -32
-4z"/>
<path d="M1780 965 c-11 -13 -11 -18 2 -31 20 -20 50 -7 46 20 -4 26 -30 32
-48 11z"/>
<path d="M7061 1350 c-19 -11 -9 -45 14 -45 13 0 21 8 23 21 3 23 -17 37 -37
24z"/>
<path d="M7350 1345 c-10 -12 -10 -18 0 -30 16 -19 39 -19 46 0 6 15 -11 45
-26 45 -4 0 -13 -7 -20 -15z"/>
<path d="M4384 1275 c-4 -9 -2 -21 4 -27 15 -15 44 -1 40 19 -4 23 -36 29 -44
8z"/>
<path d="M5137 917 c-8 -21 8 -39 29 -35 27 5 25 42 -2 46 -12 2 -24 -3 -27
-11z"/>
<path d="M3664 945 c-8 -20 4 -35 26 -35 23 0 32 13 24 34 -8 20 -43 21 -50 1z"/>
<path d="M4391 930 c-19 -11 -9 -45 14 -45 13 0 21 8 23 21 3 23 -17 37 -37
24z"/>
<path d="M1152 1191 c-20 -12 -10 -46 14 -49 25 -4 40 24 23 44 -13 16 -19 17
-37 5z"/>
<path d="M917 833 c-13 -12 -7 -41 10 -47 21 -8 48 17 40 38 -6 16 -38 22 -50
9z"/>
<path d="M7070 1094 c-11 -12 -10 -18 3 -32 16 -15 18 -15 33 0 19 18 12 48
-9 48 -8 0 -20 -7 -27 -16z"/>
<path d="M7094 805 c-8 -19 3 -35 26 -35 19 0 34 25 24 41 -8 14 -44 10 -50
-6z"/>
<path d="M7464 775 c-8 -19 3 -35 26 -35 19 0 30 17 23 38 -6 17 -42 15 -49
-3z"/>
<path d="M6794 665 c-8 -19 3 -35 26 -35 19 0 30 17 23 38 -6 17 -42 15 -49
-3z"/>
<path d="M6754 1075 c-9 -23 4 -47 23 -43 22 4 30 38 11 49 -19 13 -28 11 -34
-6z"/>
<path d="M6180 955 c-10 -12 -10 -18 0 -30 16 -20 36 -19 44 1 6 16 -9 44 -24
44 -4 0 -13 -7 -20 -15z"/>
<path d="M986 1054 c-4 -10 -1 -24 7 -31 19 -19 49 -5 45 21 -4 27 -43 34 -52
10z"/>
<path d="M464 1005 c-4 -9 0 -23 8 -31 20 -20 50 -7 46 20 -4 26 -45 35 -54
11z"/>
<path d="M1994 865 c-8 -19 3 -35 26 -35 19 0 30 17 23 38 -6 17 -42 15 -49
-3z"/>
<path d="M2157 817 c-8 -21 8 -39 29 -35 27 5 25 42 -2 46 -12 2 -24 -3 -27
-11z"/>
<path d="M3255 1024 c-15 -15 -15 -19 -1 -32 17 -17 46 -10 46 11 0 8 -6 20
-14 26 -11 9 -18 8 -31 -5z"/>
<path d="M3637 587 c-8 -21 8 -39 29 -35 27 5 25 42 -2 46 -12 2 -24 -3 -27
-11z"/>
<path d="M4592 998 c2 -15 10 -23 23 -23 30 0 27 39 -3 43 -20 3 -23 0 -20
-20z"/>
<path d="M4673 974 c-3 -8 -1 -20 5 -26 16 -16 42 -2 42 22 0 24 -38 28 -47 4z"/>
<path d="M5096 741 c-10 -16 5 -41 24 -41 19 0 34 25 24 41 -3 5 -14 9 -24 9
-10 0 -21 -4 -24 -9z"/>
<path d="M4597 443 c-12 -12 -7 -41 7 -46 19 -7 40 18 32 38 -6 15 -28 20 -39
8z"/>
<path d="M5054 375 c-8 -19 3 -35 26 -35 19 0 30 17 23 38 -6 17 -42 15 -49
-3z"/>
<path d="M4595 353 c-15 -14 -15 -18 -1 -31 18 -19 46 -9 46 17 0 26 -26 34
-45 14z"/>
<path d="M5920 1015 c-25 -30 10 -61 38 -33 7 7 8 17 1 30 -12 22 -23 23 -39
3z"/>
<path d="M5490 854 c-11 -12 -10 -18 3 -32 16 -15 18 -15 34 0 13 14 14 20 3
32 -7 9 -16 16 -20 16 -4 0 -13 -7 -20 -16z"/>
<path d="M3957 987 c-8 -21 8 -39 29 -35 27 5 25 42 -2 46 -12 2 -24 -3 -27
-11z"/>
<path d="M3674 735 c-4 -9 -2 -21 4 -27 15 -15 44 -1 40 19 -4 23 -36 29 -44
8z"/>
<path d="M6544 985 c-8 -20 4 -35 27 -35 14 0 19 7 19 25 0 18 -5 25 -20 25
-11 0 -23 -7 -26 -15z"/>
<path d="M6542 708 c2 -15 10 -23 23 -23 13 0 21 8 23 23 3 18 -1 22 -23 22
-22 0 -26 -4 -23 -22z"/>
<path d="M6674 985 c-8 -19 3 -35 26 -35 19 0 30 17 23 38 -6 17 -42 15 -49
-3z"/>
<path d="M6674 625 c-8 -19 3 -35 26 -35 19 0 34 25 24 41 -8 14 -44 10 -50
-6z"/>
<path d="M2214 736 c-9 -24 4 -48 23 -44 12 2 18 12 18 28 0 29 -32 41 -41 16z"/>
<path d="M2821 546 c-15 -18 -3 -46 20 -46 25 0 35 26 19 45 -15 19 -24 19
-39 1z"/>
<path d="M3637 457 c-8 -21 8 -39 29 -35 27 5 25 42 -2 46 -12 2 -24 -3 -27
-11z"/>
<path d="M3080 365 c-7 -8 -10 -22 -6 -30 7 -20 42 -19 50 1 8 22 8 22 -13 33
-14 8 -22 7 -31 -4z"/>
<path d="M2456 821 c-11 -18 6 -42 28 -39 29 4 29 42 -1 46 -11 2 -24 -1 -27
-7z"/>
<path d="M2641 756 c-9 -11 -8 -18 5 -31 15 -15 19 -15 32 -1 17 17 10 46 -11
46 -8 0 -20 -6 -26 -14z"/>
<path d="M2726 753 c-4 -9 0 -23 9 -32 13 -14 17 -14 31 1 9 9 14 24 11 32 -8
21 -43 20 -51 -1z"/>
<path d="M2711 680 c-19 -11 -9 -45 14 -45 13 0 21 8 23 21 3 23 -17 37 -37
24z"/>
<path d="M2960 515 c-16 -19 -6 -45 19 -45 23 0 35 28 20 46 -15 18 -24 18
-39 -1z"/>
<path d="M2637 477 c-8 -21 8 -39 29 -35 27 5 25 42 -2 46 -12 2 -24 -3 -27
-11z"/>
<path d="M2704 256 c-9 -24 4 -48 23 -44 12 2 18 12 18 28 0 29 -32 41 -41 16z"/>
<path d="M4232 808 c2 -15 10 -23 23 -23 30 0 27 39 -3 43 -20 3 -23 0 -20
-20z"/>
<path d="M3727 644 c-12 -12 -8 -42 6 -47 21 -8 39 8 35 29 -3 19 -29 30 -41
18z"/>
<path d="M6354 815 c-8 -19 3 -35 26 -35 19 0 30 17 23 38 -6 17 -42 15 -49
-3z"/>
<path d="M6834 315 c-4 -9 -2 -21 4 -27 16 -16 47 -5 47 17 0 26 -42 34 -51
10z"/>
<path d="M6325 234 c-15 -15 -15 -19 -1 -32 17 -17 46 -10 46 11 0 8 -6 20
-14 26 -11 9 -18 8 -31 -5z"/>
<path d="M6317 153 c-12 -12 -7 -41 8 -47 22 -8 49 23 34 40 -12 15 -31 18
-42 7z"/>
<path d="M9133 794 c-3 -8 1 -22 9 -30 12 -12 17 -12 33 -1 23 17 14 47 -15
47 -11 0 -23 -7 -27 -16z"/>
<path d="M9690 426 c-18 -22 -5 -48 22 -44 17 2 23 10 23 28 0 29 -26 38 -45
16z"/>
<path d="M1676 754 c-4 -10 -1 -24 7 -31 19 -19 49 -5 45 21 -4 27 -43 34 -52
10z"/>
<path d="M2040 605 c-16 -19 -6 -45 19 -45 23 0 35 28 20 46 -15 18 -24 18
-39 -1z"/>
<path d="M1392 751 c-20 -12 -10 -46 14 -49 25 -4 40 24 23 44 -13 16 -19 17
-37 5z"/>
<path d="M676 684 c-4 -10 -1 -24 7 -31 19 -19 49 -5 45 21 -4 27 -43 34 -52
10z"/>
<path d="M7854 695 c-8 -19 3 -35 26 -35 19 0 30 17 23 38 -6 17 -42 15 -49
-3z"/>
<path d="M7847 293 c-13 -12 -7 -41 10 -47 9 -4 23 0 31 8 13 12 13 18 2 30
-13 17 -32 21 -43 9z"/>
<path d="M6276 684 c-4 -10 -2 -22 3 -27 15 -15 46 -3 46 18 0 26 -40 33 -49
9z"/>
<path d="M6486 311 c-11 -18 6 -42 28 -39 29 4 29 42 -1 46 -11 2 -24 -1 -27
-7z"/>
<path d="M7464 595 c-8 -19 3 -35 26 -35 19 0 30 17 23 38 -6 17 -42 15 -49
-3z"/>
<path d="M6910 514 c-11 -12 -10 -18 3 -32 16 -15 18 -15 33 0 19 18 12 48 -9
48 -8 0 -20 -7 -27 -16z"/>
<path d="M7723 414 c-3 -8 2 -23 11 -32 15 -15 17 -15 32 0 21 21 11 48 -16
48 -11 0 -23 -7 -27 -16z"/>
<path d="M8334 225 c-8 -21 2 -45 19 -45 20 0 40 27 33 45 -7 19 -45 20 -52 0z"/>
<path d="M8650 675 c-11 -13 -11 -19 3 -32 21 -21 49 -9 45 19 -4 28 -30 35
-48 13z"/>
<path d="M8964 675 c-9 -23 3 -45 25 -45 23 0 35 28 20 46 -15 18 -38 18 -45
-1z"/>
<path d="M1543 654 c-3 -8 2 -23 11 -32 15 -15 17 -15 32 0 21 21 11 48 -16
48 -11 0 -23 -7 -27 -16z"/>
<path d="M914 615 c-8 -21 2 -45 19 -45 21 0 38 25 31 44 -8 20 -43 21 -50 1z"/>
<path d="M4054 645 c-8 -19 3 -35 26 -35 19 0 30 17 23 38 -6 17 -42 15 -49
-3z"/>
<path d="M4264 265 c-4 -9 -2 -21 4 -27 16 -16 47 -5 47 17 0 26 -42 34 -51
10z"/>
<path d="M8494 645 c-8 -21 2 -45 19 -45 8 0 20 7 27 15 10 12 10 18 0 30 -7
8 -19 15 -27 15 -7 0 -16 -7 -19 -15z"/>
<path d="M9084 545 c-4 -9 0 -23 9 -32 21 -21 49 -9 45 19 -4 28 -45 38 -54
13z"/>
<path d="M5504 586 c-9 -24 4 -48 23 -44 12 2 18 12 18 28 0 29 -32 41 -41 16z"/>
<path d="M5971 576 c-13 -16 -4 -46 14 -46 7 0 18 7 25 15 10 12 10 18 0 30
-15 19 -24 19 -39 1z"/>
<path d="M2170 395 c-11 -13 -11 -19 3 -32 21 -21 49 -9 45 19 -4 28 -30 35
-48 13z"/>
<path d="M2580 315 c-16 -19 -6 -45 19 -45 23 0 35 28 20 46 -15 18 -24 18
-39 -1z"/>
<path d="M4677 563 c-13 -12 -7 -41 10 -47 23 -9 47 22 32 41 -12 14 -32 17
-42 6z"/>
<path d="M5187 444 c-12 -12 -8 -42 6 -47 21 -8 39 8 35 29 -3 19 -29 30 -41
18z"/>
<path d="M844 515 c-4 -9 0 -23 8 -31 20 -20 50 -7 46 20 -4 26 -45 35 -54 11z"/>
<path d="M1401 166 c-17 -20 -2 -48 23 -44 24 3 34 37 14 49 -18 12 -24 11
-37 -5z"/>
<path d="M5371 520 c-19 -11 -9 -45 14 -45 13 0 21 8 23 21 3 23 -17 37 -37
24z"/>
<path d="M5874 396 c-9 -24 4 -48 23 -44 12 2 18 12 18 28 0 29 -32 41 -41 16z"/>
<path d="M1031 216 c-17 -20 -2 -48 23 -44 24 3 34 37 14 49 -18 12 -24 11
-37 -5z"/>
<path d="M8991 296 c-15 -18 -4 -46 18 -46 27 0 42 20 30 42 -12 21 -32 23
-48 4z"/>
<path d="M7913 483 c-18 -7 -16 -42 3 -50 8 -3 23 1 31 10 13 13 14 19 3 31
-13 17 -17 18 -37 9z"/>
<path d="M7904 205 c-8 -21 2 -45 19 -45 8 0 20 7 27 15 10 12 10 18 0 30 -7
8 -19 15 -27 15 -7 0 -16 -7 -19 -15z"/>
<path d="M7587 453 c-12 -11 -7 -41 7 -46 8 -3 22 0 32 8 15 11 16 15 5 29
-14 17 -33 21 -44 9z"/>
<path d="M7807 196 c-8 -20 19 -47 39 -39 22 8 13 47 -12 51 -12 2 -24 -4 -27
-12z"/>
<path d="M8087 143 c-13 -12 -7 -44 8 -49 24 -10 47 14 34 37 -10 19 -30 25
-42 12z"/>
<path d="M8510 365 c-11 -13 -11 -19 3 -32 21 -21 49 -9 45 19 -4 28 -30 35
-48 13z"/>
<path d="M8875 204 c-19 -19 -19 -28 -1 -43 20 -16 46 -3 46 24 0 29 -25 39
-45 19z"/>
<path d="M1464 406 c-9 -24 4 -48 23 -44 24 4 24 52 0 56 -9 2 -20 -4 -23 -12z"/>
<path d="M2034 305 c-4 -9 -2 -21 4 -27 16 -16 47 -5 47 17 0 26 -42 34 -51
10z"/>
<path d="M9171 212 c-18 -34 24 -57 49 -27 10 12 10 18 0 30 -17 20 -37 19
-49 -3z"/>
<path d="M3747 304 c-4 -4 -7 -16 -7 -26 0 -13 7 -18 26 -18 21 0 25 4 22 22
-3 23 -27 35 -41 22z"/>
<path d="M3084 185 c-8 -19 3 -35 26 -35 19 0 30 17 23 38 -6 17 -42 15 -49
-3z"/>
<path d="M1592 291 c-21 -13 -10 -46 16 -49 27 -4 40 22 22 43 -14 17 -20 18
-38 6z"/>
<path d="M1900 285 c-17 -20 -5 -45 20 -45 11 0 23 7 26 15 6 15 -11 45 -26
45 -4 0 -13 -7 -20 -15z"/>
<path d="M5444 225 c-4 -9 -2 -21 4 -27 16 -16 47 -5 47 17 0 26 -42 34 -51
10z"/>
<path d="M610 7065 l0 -65 95 0 95 0 0 65 0 65 -95 0 -95 0 0 -65z"/>
<path d="M1997 7106 c10 -13 46 -53 80 -90 l60 -66 132 0 131 0 0 90 0 90
-211 0 -210 0 18 -24z"/>
<path d="M2670 7085 l0 -45 332 0 332 0 -44 45 -44 45 -288 0 -288 0 0 -45z"/>
<path d="M5880 6973 c0 -155 0 -156 20 -138 18 16 20 31 20 157 0 131 -1 138
-20 138 -19 0 -20 -7 -20 -157z"/>
<path d="M10120 7080 l0 -50 163 2 162 3 3 48 3 47 -165 0 -166 0 0 -50z"/>
<path d="M6892 7067 c-9 -10 -9 -18 1 -31 17 -23 49 -11 45 18 -4 25 -30 32
-46 13z"/>
<path d="M8456 7054 c-20 -20 -9 -46 18 -42 25 4 34 43 12 51 -9 4 -22 -1 -30
-9z"/>
<path d="M7760 7025 c-16 -19 -6 -45 19 -45 23 0 35 28 20 46 -15 18 -24 18
-39 -1z"/>
<path d="M7674 6995 c-4 -9 -2 -21 4 -27 16 -16 47 -5 47 17 0 26 -42 34 -51
10z"/>
<path d="M3610 6944 c-11 -12 -10 -18 3 -32 16 -15 18 -15 33 0 19 18 12 48
-9 48 -8 0 -20 -7 -27 -16z"/>
<path d="M6501 6946 c-15 -18 -3 -46 20 -46 25 0 35 26 19 45 -15 19 -24 19
-39 1z"/>
<path d="M5064 6935 c-4 -9 -2 -21 4 -27 16 -16 47 -5 47 17 0 26 -42 34 -51
10z"/>
<path d="M7957 6935 c-20 -19 -12 -45 14 -45 26 0 36 28 17 46 -13 14 -17 14
-31 -1z"/>
<path d="M7414 6906 c-9 -24 4 -48 23 -44 12 2 18 12 18 28 0 29 -32 41 -41
16z"/>
<path d="M7500 6905 c-17 -20 -5 -45 20 -45 11 0 23 7 26 15 6 15 -11 45 -26
45 -4 0 -13 -7 -20 -15z"/>
<path d="M136 6894 c-9 -22 17 -49 39 -40 10 3 15 15 13 28 -4 29 -42 37 -52
12z"/>
<path d="M7054 6895 c-8 -19 3 -35 26 -35 19 0 30 17 23 38 -6 17 -42 15 -49
-3z"/>
<path d="M6971 6890 c-19 -11 -9 -45 14 -45 13 0 21 8 23 21 3 23 -17 37 -37
24z"/>
<path d="M8072 6847 c-9 -10 -8 -18 2 -32 18 -25 48 -13 44 17 -4 27 -30 35
-46 15z"/>
<path d="M5904 6816 c-8 -21 3 -36 27 -36 15 0 20 6 17 22 -4 27 -35 37 -44
14z"/>
<path d="M990 6805 c-17 -20 -5 -45 20 -45 11 0 23 7 26 15 6 15 -11 45 -26
45 -4 0 -13 -7 -20 -15z"/>
<path d="M5024 6795 c-8 -19 3 -35 26 -35 22 0 33 23 17 39 -15 15 -37 14 -43
-4z"/>
<path d="M340 6785 c-17 -20 -5 -45 20 -45 11 0 23 7 26 15 6 15 -11 45 -26
45 -4 0 -13 -7 -20 -15z"/>
<path d="M1267 6763 c-13 -12 -7 -41 10 -47 21 -9 46 16 37 37 -6 17 -35 23
-47 10z"/>
<path d="M4220 6754 c-11 -12 -10 -18 3 -31 13 -13 19 -14 31 -3 20 16 20 36
0 44 -21 8 -20 8 -34 -10z"/>
<path d="M5990 6715 c-10 -12 -10 -18 0 -30 16 -20 36 -19 44 1 6 16 -9 44
-24 44 -4 0 -13 -7 -20 -15z"/>
<path d="M1456 6663 c-10 -26 23 -48 42 -29 8 8 12 22 9 30 -8 21 -43 20 -51
-1z"/>
<path d="M5040 6654 c-11 -12 -10 -18 3 -32 16 -15 18 -15 34 0 13 14 14 20 3
32 -7 9 -16 16 -20 16 -4 0 -13 -7 -20 -16z"/>
<path d="M4482 6558 c2 -15 10 -23 23 -23 30 0 27 39 -3 43 -20 3 -23 0 -20
-20z"/>
<path d="M7437 6567 c-8 -21 8 -39 29 -35 27 5 25 42 -2 46 -12 2 -24 -3 -27
-11z"/>
<path d="M842 6537 c-9 -10 -8 -18 2 -32 18 -25 48 -13 44 17 -4 27 -30 35
-46 15z"/>
<path d="M7488 6525 c-14 -18 -18 -44 -18 -114 0 -78 3 -94 20 -111 l20 -20 0
135 c0 74 -1 135 -2 135 -2 0 -11 -11 -20 -25z"/>
<path d="M6354 6496 c-8 -21 3 -36 27 -36 15 0 20 6 17 22 -4 27 -35 37 -44
14z"/>
<path d="M5940 6484 c-11 -12 -10 -18 3 -32 16 -15 18 -15 34 0 13 14 14 20 3
32 -7 9 -16 16 -20 16 -4 0 -13 -7 -20 -16z"/>
<path d="M6287 6494 c-12 -12 -8 -42 6 -47 21 -8 39 8 35 29 -3 19 -29 30 -41
18z"/>
<path d="M5852 6458 c2 -15 10 -23 23 -23 13 0 21 8 23 23 3 18 -1 22 -23 22
-22 0 -26 -4 -23 -22z"/>
<path d="M7717 6463 c-13 -12 -7 -41 10 -47 9 -4 23 0 31 8 13 12 13 18 2 30
-13 17 -32 21 -43 9z"/>
<path d="M354 6445 c-8 -21 2 -45 19 -45 8 0 20 7 27 15 10 12 10 18 0 30 -7
8 -19 15 -27 15 -7 0 -16 -7 -19 -15z"/>
<path d="M7441 6286 c-9 -11 -8 -18 5 -31 15 -15 19 -15 32 -1 17 17 10 46
-11 46 -8 0 -20 -6 -26 -14z"/>
<path d="M7500 6164 c-11 -12 -10 -18 3 -32 16 -15 18 -15 34 0 13 14 14 20 3
32 -7 9 -16 16 -20 16 -4 0 -13 -7 -20 -16z"/>
<path d="M6247 5914 c-4 -4 -7 -16 -7 -26 0 -13 7 -18 26 -18 21 0 25 4 22 22
-3 23 -27 35 -41 22z"/>
<path d="M10394 5555 c-4 -9 -2 -21 4 -27 16 -16 47 -5 47 17 0 26 -42 34 -51
10z"/>
<path d="M11047 5444 c-12 -13 -8 -42 8 -48 25 -9 46 5 43 28 -3 21 -37 34
-51 20z"/>
<path d="M900 1734 c-11 -12 -10 -18 3 -32 16 -15 18 -15 33 0 19 18 12 48 -9
48 -8 0 -20 -7 -27 -16z"/>
<path d="M1544 1605 c-4 -9 -2 -21 4 -27 16 -16 47 -5 47 17 0 26 -42 34 -51
10z"/>
<path d="M5713 1273 c-19 -7 -16 -40 4 -47 21 -8 36 6 31 30 -3 19 -16 25 -35
17z"/>
<path d="M0 1020 l0 -150 155 0 155 0 0 150 0 150 -155 0 -155 0 0 -150z"/>
<path d="M4447 1007 c-8 -21 8 -39 29 -35 27 5 25 42 -2 46 -12 2 -24 -3 -27
-11z"/>
<path d="M4510 884 c-11 -12 -10 -18 3 -32 16 -15 18 -15 34 0 13 14 14 20 3
32 -7 9 -16 16 -20 16 -4 0 -13 -7 -20 -16z"/>
<path d="M4481 723 c0 -93 3 -131 9 -115 5 12 14 22 20 22 6 0 10 36 10 95 0
82 -3 98 -20 115 l-20 20 1 -137z"/>
<path d="M421 747 c-17 -21 -3 -49 23 -45 15 2 21 10 21 28 0 28 -26 38 -44
17z"/>
<path d="M4237 724 c-10 -10 -9 -42 2 -48 18 -11 42 6 39 28 -3 21 -28 33 -41
20z"/>
<path d="M6094 695 c-8 -20 4 -35 27 -35 14 0 19 7 19 25 0 18 -5 25 -20 25
-11 0 -23 -7 -26 -15z"/>
<path d="M5664 686 c-9 -24 4 -48 23 -44 12 2 18 12 18 28 0 29 -32 41 -41 16z"/>
<path d="M6007 687 c-8 -21 8 -39 29 -35 27 5 25 42 -2 46 -12 2 -24 -3 -27
-11z"/>
<path d="M5601 680 c-19 -11 -9 -45 14 -45 13 0 21 8 23 21 3 23 -17 37 -37
24z"/>
<path d="M344 605 c-9 -23 3 -45 26 -45 25 0 37 25 20 45 -16 19 -39 19 -46 0z"/>
<path d="M4510 605 c-15 -18 -6 -45 13 -45 8 0 20 7 27 15 10 12 10 18 0 30
-16 19 -24 19 -40 0z"/>
<path d="M54 466 c-10 -26 4 -48 28 -44 33 4 33 52 0 56 -13 2 -25 -3 -28 -12z"/>
<path d="M5954 455 c-4 -9 -2 -21 4 -27 16 -16 47 -5 47 17 0 26 -42 34 -51
10z"/>
<path d="M6924 376 c-9 -24 4 -48 23 -44 12 2 18 12 18 28 0 29 -32 41 -41 16z"/>
<path d="M6051 360 c-19 -11 -9 -45 14 -45 13 0 21 8 23 21 3 23 -17 37 -37
24z"/>
<path d="M3877 333 c-13 -12 -7 -41 10 -47 9 -4 23 0 31 8 13 12 13 18 2 30
-13 17 -32 21 -43 9z"/>
<path d="M6088 306 c-16 -12 -18 -32 -18 -160 0 -139 1 -146 20 -146 19 0 20
7 20 160 0 88 -1 160 -2 160 -2 0 -11 -7 -20 -14z"/>
<path d="M4984 286 c-8 -21 3 -36 27 -36 15 0 20 6 17 22 -4 27 -35 37 -44 14z"/>
<path d="M4446 264 c-4 -10 -2 -22 3 -27 15 -15 46 -3 46 18 0 26 -40 33 -49
9z"/>
<path d="M4537 274 c-4 -4 -7 -16 -7 -26 0 -13 7 -18 26 -18 21 0 25 4 22 22
-3 23 -27 35 -41 22z"/>
<path d="M4892 258 c2 -15 10 -23 23 -23 13 0 21 8 23 23 3 18 -1 22 -23 22
-22 0 -26 -4 -23 -22z"/>
<path d="M3994 235 c-8 -19 3 -35 26 -35 19 0 34 25 24 41 -8 14 -44 10 -50
-6z"/>
<path d="M6880 235 c-17 -20 -5 -45 20 -45 11 0 23 7 26 15 6 15 -11 45 -26
45 -4 0 -13 -7 -20 -15z"/>
<path d="M2050 110 l0 -110 332 0 333 0 -110 110 -110 110 -222 0 -223 0 0
-110z"/>
<path d="M9590 100 l0 -100 222 0 222 0 -44 47 c-25 27 -67 72 -95 101 l-49
52 -128 0 -128 0 0 -100z"/>
<path d="M4264 165 c-4 -9 -2 -21 4 -27 16 -16 47 -5 47 17 0 26 -42 34 -51
10z"/>
<path d="M4186 143 c-10 -26 23 -48 42 -29 8 8 12 22 9 30 -8 21 -43 20 -51
-1z"/>
<path d="M3494 115 c-8 -19 3 -35 26 -35 19 0 30 17 23 38 -6 17 -42 15 -49
-3z"/>
<path d="M5057 113 c-13 -12 -7 -41 10 -47 9 -4 23 0 31 8 13 12 13 18 2 30
-13 17 -32 21 -43 9z"/>
<path d="M1550 55 l0 -55 160 0 160 0 0 55 0 55 -160 0 -160 0 0 -55z"/>
<path d="M8705 50 l49 -50 283 0 283 0 0 50 0 50 -332 0 -332 0 49 -50z"/>
</g>
</svg>
